<?xml version="1.0" standalone="no"?><!DOCTYPE svg PUBLIC "-//W3C//DTD SVG 1.1//EN" "http://www.w3.org/Graphics/SVG/1.1/DTD/svg11.dtd"><svg height="505" node-id="1" sillyvg="true" template-height="505" template-width="600" version="1.1" viewBox="0 0 600 505" width="600" xmlns="http://www.w3.org/2000/svg" xmlns:xlink="http://www.w3.org/1999/xlink"><defs node-id="122"><clipPath id="mask-2" node-id="19"><path d="M 85.02 150.58 L 198.19 150.58 L 198.19 379.09 L 85.02 379.09 Z" fill="#000000" fill-rule="evenodd" node-id="127" stroke="none" target-height="228.50941" target-width="113.17228" target-x="85.01833" target-y="150.57701"></path></clipPath><clipPath id="mask-4" node-id="24"><path d="M 85.02 169.87 L 186.01 169.87 L 186.01 379.09 L 85.02 379.09 Z" fill="#000000" fill-rule="evenodd" node-id="134" stroke="none" target-height="209.21284" target-width="100.99485" target-x="85.01833" target-y="169.87358"></path></clipPath><clipPath id="mask-6_50" node-id="28"><path d="M 85.02 379.09 L 533.26 379.09 L 533.26 117.74 L 85.02 117.74 Z" fill="#000000" fill-rule="evenodd" node-id="141" stroke="none" target-height="261.35043" target-width="448.2465" target-x="85.01833" target-y="117.736"></path></clipPath><clipPath id="mask-6_49" node-id="28"><path d="M 85.02 379.09 L 533.26 379.09 L 533.26 117.74 L 85.02 117.74 Z" fill="#000000" fill-rule="evenodd" node-id="141" stroke="none" target-height="261.35043" target-width="448.2465" target-x="85.01833" target-y="117.736"></path></clipPath><clipPath id="mask-6_48" node-id="28"><path d="M 85.02 379.09 L 533.26 379.09 L 533.26 117.74 L 85.02 117.74 Z" fill="#000000" fill-rule="evenodd" node-id="141" stroke="none" target-height="261.35043" target-width="448.2465" target-x="85.01833" target-y="117.736"></path></clipPath><clipPath id="mask-6_47" node-id="28"><path d="M 85.02 379.09 L 533.26 379.09 L 533.26 117.74 L 85.02 117.74 Z" fill="#000000" fill-rule="evenodd" node-id="141" stroke="none" target-height="261.35043" target-width="448.2465" target-x="85.01833" target-y="117.736"></path></clipPath><clipPath id="mask-6_46" node-id="28"><path d="M 85.02 379.09 L 533.26 379.09 L 533.26 117.74 L 85.02 117.74 Z" fill="#000000" fill-rule="evenodd" node-id="141" stroke="none" target-height="261.35043" target-width="448.2465" target-x="85.01833" target-y="117.736"></path></clipPath><clipPath id="mask-6_45" node-id="28"><path d="M 85.02 379.09 L 533.26 379.09 L 533.26 117.74 L 85.02 117.74 Z" fill="#000000" fill-rule="evenodd" node-id="141" stroke="none" target-height="261.35043" target-width="448.2465" target-x="85.01833" target-y="117.736"></path></clipPath><clipPath id="mask-6_44" node-id="28"><path d="M 85.02 379.09 L 533.26 379.09 L 533.26 117.74 L 85.02 117.74 Z" fill="#000000" fill-rule="evenodd" node-id="141" stroke="none" target-height="261.35043" target-width="448.2465" target-x="85.01833" target-y="117.736"></path></clipPath><clipPath id="mask-6_43" node-id="28"><path d="M 85.02 379.09 L 533.26 379.09 L 533.26 117.74 L 85.02 117.74 Z" fill="#000000" fill-rule="evenodd" node-id="141" stroke="none" target-height="261.35043" target-width="448.2465" target-x="85.01833" target-y="117.736"></path></clipPath><clipPath id="mask-6_42" node-id="28"><path d="M 85.02 379.09 L 533.26 379.09 L 533.26 117.74 L 85.02 117.74 Z" fill="#000000" fill-rule="evenodd" node-id="141" stroke="none" target-height="261.35043" target-width="448.2465" target-x="85.01833" target-y="117.736"></path></clipPath><clipPath id="mask-6_41" node-id="28"><path d="M 85.02 379.09 L 533.26 379.09 L 533.26 117.74 L 85.02 117.74 Z" fill="#000000" fill-rule="evenodd" node-id="141" stroke="none" target-height="261.35043" target-width="448.2465" target-x="85.01833" target-y="117.736"></path></clipPath><clipPath id="mask-6_40" node-id="28"><path d="M 85.02 379.09 L 533.26 379.09 L 533.26 117.74 L 85.02 117.74 Z" fill="#000000" fill-rule="evenodd" node-id="141" stroke="none" target-height="261.35043" target-width="448.2465" target-x="85.01833" target-y="117.736"></path></clipPath><clipPath id="mask-6_39" node-id="28"><path d="M 85.02 379.09 L 533.26 379.09 L 533.26 117.74 L 85.02 117.74 Z" fill="#000000" fill-rule="evenodd" node-id="141" stroke="none" target-height="261.35043" target-width="448.2465" target-x="85.01833" target-y="117.736"></path></clipPath><clipPath id="mask-6_38" node-id="28"><path d="M 85.02 379.09 L 533.26 379.09 L 533.26 117.74 L 85.02 117.74 Z" fill="#000000" fill-rule="evenodd" node-id="141" stroke="none" target-height="261.35043" target-width="448.2465" target-x="85.01833" target-y="117.736"></path></clipPath><clipPath id="mask-6_37" node-id="28"><path d="M 85.02 379.09 L 533.26 379.09 L 533.26 117.74 L 85.02 117.74 Z" fill="#000000" fill-rule="evenodd" node-id="141" stroke="none" target-height="261.35043" target-width="448.2465" target-x="85.01833" target-y="117.736"></path></clipPath><clipPath id="mask-6_36" node-id="28"><path d="M 85.02 379.09 L 533.26 379.09 L 533.26 117.74 L 85.02 117.74 Z" fill="#000000" fill-rule="evenodd" node-id="141" stroke="none" target-height="261.35043" target-width="448.2465" target-x="85.01833" target-y="117.736"></path></clipPath><clipPath id="mask-6_35" node-id="28"><path d="M 85.02 379.09 L 533.26 379.09 L 533.26 117.74 L 85.02 117.74 Z" fill="#000000" fill-rule="evenodd" node-id="141" stroke="none" target-height="261.35043" target-width="448.2465" target-x="85.01833" target-y="117.736"></path></clipPath><clipPath id="mask-6_34" node-id="28"><path d="M 85.02 379.09 L 533.26 379.09 L 533.26 117.74 L 85.02 117.74 Z" fill="#000000" fill-rule="evenodd" node-id="141" stroke="none" target-height="261.35043" target-width="448.2465" target-x="85.01833" target-y="117.736"></path></clipPath><clipPath id="mask-6_33" node-id="28"><path d="M 85.02 379.09 L 533.26 379.09 L 533.26 117.74 L 85.02 117.74 Z" fill="#000000" fill-rule="evenodd" node-id="141" stroke="none" target-height="261.35043" target-width="448.2465" target-x="85.01833" target-y="117.736"></path></clipPath><clipPath id="mask-6_32" node-id="28"><path d="M 85.02 379.09 L 533.26 379.09 L 533.26 117.74 L 85.02 117.74 Z" fill="#000000" fill-rule="evenodd" node-id="141" stroke="none" target-height="261.35043" target-width="448.2465" target-x="85.01833" target-y="117.736"></path></clipPath><clipPath id="mask-6_31" node-id="28"><path d="M 85.02 379.09 L 533.26 379.09 L 533.26 117.74 L 85.02 117.74 Z" fill="#000000" fill-rule="evenodd" node-id="141" stroke="none" target-height="261.35043" target-width="448.2465" target-x="85.01833" target-y="117.736"></path></clipPath><clipPath id="mask-6_30" node-id="28"><path d="M 85.02 379.09 L 533.26 379.09 L 533.26 117.74 L 85.02 117.74 Z" fill="#000000" fill-rule="evenodd" node-id="141" stroke="none" target-height="261.35043" target-width="448.2465" target-x="85.01833" target-y="117.736"></path></clipPath><clipPath id="mask-6_29" node-id="28"><path d="M 85.02 379.09 L 533.26 379.09 L 533.26 117.74 L 85.02 117.74 Z" fill="#000000" fill-rule="evenodd" node-id="141" stroke="none" target-height="261.35043" target-width="448.2465" target-x="85.01833" target-y="117.736"></path></clipPath><clipPath id="mask-6_28" node-id="28"><path d="M 85.02 379.09 L 533.26 379.09 L 533.26 117.74 L 85.02 117.74 Z" fill="#000000" fill-rule="evenodd" node-id="141" stroke="none" target-height="261.35043" target-width="448.2465" target-x="85.01833" target-y="117.736"></path></clipPath><clipPath id="mask-6_27" node-id="28"><path d="M 85.02 379.09 L 533.26 379.09 L 533.26 117.74 L 85.02 117.74 Z" fill="#000000" fill-rule="evenodd" node-id="141" stroke="none" target-height="261.35043" target-width="448.2465" target-x="85.01833" target-y="117.736"></path></clipPath><clipPath id="mask-6_26" node-id="28"><path d="M 85.02 379.09 L 533.26 379.09 L 533.26 117.74 L 85.02 117.74 Z" fill="#000000" fill-rule="evenodd" node-id="141" stroke="none" target-height="261.35043" target-width="448.2465" target-x="85.01833" target-y="117.736"></path></clipPath><clipPath id="mask-6" node-id="28"><path d="M 0.40 261.36 L 448.65 261.36 L 448.65 0.01 L 0.40 0.01 Z" fill="#000000" fill-rule="evenodd" node-id="141" stroke="none" target-height="261.35043" target-width="448.2465" target-x="0.40294462" target-y="0.00507246"></path></clipPath><clipPath id="mask-8" node-id="59"><path d="M 78.45 483.44 L 532.18 483.44 L 532.18 490.64 L 78.45 490.64 Z" fill="#000000" fill-rule="evenodd" node-id="148" stroke="none" target-height="7.2037964" target-width="453.72388" target-x="78.45257" target-y="483.43777"></path></clipPath><clipPath id="mask-10_38" node-id="64"><path d="M 59.49 490.64 L 579.90 490.64 L 579.90 10.26 L 59.49 10.26 Z" fill="#000000" fill-rule="evenodd" node-id="155" stroke="none" target-height="480.38144" target-width="520.41534" target-x="59.48718" target-y="10.260112"></path></clipPath><clipPath id="mask-10_37" node-id="64"><path d="M 59.49 490.64 L 579.90 490.64 L 579.90 10.26 L 59.49 10.26 Z" fill="#000000" fill-rule="evenodd" node-id="155" stroke="none" target-height="480.38144" target-width="520.41534" target-x="59.48718" target-y="10.260112"></path></clipPath><clipPath id="mask-10_36" node-id="64"><path d="M 59.49 490.64 L 579.90 490.64 L 579.90 10.26 L 59.49 10.26 Z" fill="#000000" fill-rule="evenodd" node-id="155" stroke="none" target-height="480.38144" target-width="520.41534" target-x="59.48718" target-y="10.260112"></path></clipPath><clipPath id="mask-10_35" node-id="64"><path d="M 59.49 490.64 L 579.90 490.64 L 579.90 10.26 L 59.49 10.26 Z" fill="#000000" fill-rule="evenodd" node-id="155" stroke="none" target-height="480.38144" target-width="520.41534" target-x="59.48718" target-y="10.260112"></path></clipPath><clipPath id="mask-10_34" node-id="64"><path d="M 59.49 490.64 L 579.90 490.64 L 579.90 10.26 L 59.49 10.26 Z" fill="#000000" fill-rule="evenodd" node-id="155" stroke="none" target-height="480.38144" target-width="520.41534" target-x="59.48718" target-y="10.260112"></path></clipPath><clipPath id="mask-10_33" node-id="64"><path d="M 59.49 490.64 L 579.90 490.64 L 579.90 10.26 L 59.49 10.26 Z" fill="#000000" fill-rule="evenodd" node-id="155" stroke="none" target-height="480.38144" target-width="520.41534" target-x="59.48718" target-y="10.260112"></path></clipPath><clipPath id="mask-10_32" node-id="64"><path d="M 59.49 490.64 L 579.90 490.64 L 579.90 10.26 L 59.49 10.26 Z" fill="#000000" fill-rule="evenodd" node-id="155" stroke="none" target-height="480.38144" target-width="520.41534" target-x="59.48718" target-y="10.260112"></path></clipPath><clipPath id="mask-10_31" node-id="64"><path d="M 59.49 490.64 L 579.90 490.64 L 579.90 10.26 L 59.49 10.26 Z" fill="#000000" fill-rule="evenodd" node-id="155" stroke="none" target-height="480.38144" target-width="520.41534" target-x="59.48718" target-y="10.260112"></path></clipPath><clipPath id="mask-10_30" node-id="64"><path d="M 59.49 490.64 L 579.90 490.64 L 579.90 10.26 L 59.49 10.26 Z" fill="#000000" fill-rule="evenodd" node-id="155" stroke="none" target-height="480.38144" target-width="520.41534" target-x="59.48718" target-y="10.260112"></path></clipPath><clipPath id="mask-10_29" node-id="64"><path d="M 59.49 490.64 L 579.90 490.64 L 579.90 10.26 L 59.49 10.26 Z" fill="#000000" fill-rule="evenodd" node-id="155" stroke="none" target-height="480.38144" target-width="520.41534" target-x="59.48718" target-y="10.260112"></path></clipPath><clipPath id="mask-10_28" node-id="64"><path d="M 59.49 490.64 L 579.90 490.64 L 579.90 10.26 L 59.49 10.26 Z" fill="#000000" fill-rule="evenodd" node-id="155" stroke="none" target-height="480.38144" target-width="520.41534" target-x="59.48718" target-y="10.260112"></path></clipPath><clipPath id="mask-10_27" node-id="64"><path d="M 59.49 490.64 L 579.90 490.64 L 579.90 10.26 L 59.49 10.26 Z" fill="#000000" fill-rule="evenodd" node-id="155" stroke="none" target-height="480.38144" target-width="520.41534" target-x="59.48718" target-y="10.260112"></path></clipPath><clipPath id="mask-10_26" node-id="64"><path d="M 59.49 490.64 L 579.90 490.64 L 579.90 10.26 L 59.49 10.26 Z" fill="#000000" fill-rule="evenodd" node-id="155" stroke="none" target-height="480.38144" target-width="520.41534" target-x="59.48718" target-y="10.260112"></path></clipPath><clipPath id="mask-10_25" node-id="64"><path d="M 59.49 490.64 L 579.90 490.64 L 579.90 10.26 L 59.49 10.26 Z" fill="#000000" fill-rule="evenodd" node-id="155" stroke="none" target-height="480.38144" target-width="520.41534" target-x="59.48718" target-y="10.260112"></path></clipPath><clipPath id="mask-10_24" node-id="64"><path d="M 59.49 490.64 L 579.90 490.64 L 579.90 10.26 L 59.49 10.26 Z" fill="#000000" fill-rule="evenodd" node-id="155" stroke="none" target-height="480.38144" target-width="520.41534" target-x="59.48718" target-y="10.260112"></path></clipPath><clipPath id="mask-10_23" node-id="64"><path d="M 59.49 490.64 L 579.90 490.64 L 579.90 10.26 L 59.49 10.26 Z" fill="#000000" fill-rule="evenodd" node-id="155" stroke="none" target-height="480.38144" target-width="520.41534" target-x="59.48718" target-y="10.260112"></path></clipPath><clipPath id="mask-10_22" node-id="64"><path d="M 59.49 490.64 L 579.90 490.64 L 579.90 10.26 L 59.49 10.26 Z" fill="#000000" fill-rule="evenodd" node-id="155" stroke="none" target-height="480.38144" target-width="520.41534" target-x="59.48718" target-y="10.260112"></path></clipPath><clipPath id="mask-10_21" node-id="64"><path d="M 59.49 490.64 L 579.90 490.64 L 579.90 10.26 L 59.49 10.26 Z" fill="#000000" fill-rule="evenodd" node-id="155" stroke="none" target-height="480.38144" target-width="520.41534" target-x="59.48718" target-y="10.260112"></path></clipPath><clipPath id="mask-10_20" node-id="64"><path d="M 59.49 490.64 L 579.90 490.64 L 579.90 10.26 L 59.49 10.26 Z" fill="#000000" fill-rule="evenodd" node-id="155" stroke="none" target-height="480.38144" target-width="520.41534" target-x="59.48718" target-y="10.260112"></path></clipPath><clipPath id="mask-10" node-id="64"><path d="M 0.00 480.60 L 520.42 480.60 L 520.42 0.22 L 0.00 0.22 Z" fill="#000000" fill-rule="evenodd" node-id="155" stroke="none" target-height="480.38144" target-width="520.41534" target-x="0" target-y="0.2214916"></path></clipPath><clipPath id="mask-12_36" node-id="96"><path d="M 20.00 494.47 L 540.42 494.47 L 540.42 13.63 L 20.00 13.63 Z" fill="#000000" fill-rule="evenodd" node-id="162" stroke="none" target-height="480.8394" target-width="520.41534" target-x="20" target-y="13.628363"></path></clipPath><clipPath id="mask-12_35" node-id="96"><path d="M 20.00 494.47 L 540.42 494.47 L 540.42 13.63 L 20.00 13.63 Z" fill="#000000" fill-rule="evenodd" node-id="162" stroke="none" target-height="480.8394" target-width="520.41534" target-x="20" target-y="13.628363"></path></clipPath><clipPath id="mask-12_34" node-id="96"><path d="M 20.00 494.47 L 540.42 494.47 L 540.42 13.63 L 20.00 13.63 Z" fill="#000000" fill-rule="evenodd" node-id="162" stroke="none" target-height="480.8394" target-width="520.41534" target-x="20" target-y="13.628363"></path></clipPath><clipPath id="mask-12_33" node-id="96"><path d="M 20.00 494.47 L 540.42 494.47 L 540.42 13.63 L 20.00 13.63 Z" fill="#000000" fill-rule="evenodd" node-id="162" stroke="none" target-height="480.8394" target-width="520.41534" target-x="20" target-y="13.628363"></path></clipPath><clipPath id="mask-12_32" node-id="96"><path d="M 20.00 494.47 L 540.42 494.47 L 540.42 13.63 L 20.00 13.63 Z" fill="#000000" fill-rule="evenodd" node-id="162" stroke="none" target-height="480.8394" target-width="520.41534" target-x="20" target-y="13.628363"></path></clipPath><clipPath id="mask-12_31" node-id="96"><path d="M 20.00 494.47 L 540.42 494.47 L 540.42 13.63 L 20.00 13.63 Z" fill="#000000" fill-rule="evenodd" node-id="162" stroke="none" target-height="480.8394" target-width="520.41534" target-x="20" target-y="13.628363"></path></clipPath><clipPath id="mask-12_30" node-id="96"><path d="M 20.00 494.47 L 540.42 494.47 L 540.42 13.63 L 20.00 13.63 Z" fill="#000000" fill-rule="evenodd" node-id="162" stroke="none" target-height="480.8394" target-width="520.41534" target-x="20" target-y="13.628363"></path></clipPath><clipPath id="mask-12_29" node-id="96"><path d="M 20.00 494.47 L 540.42 494.47 L 540.42 13.63 L 20.00 13.63 Z" fill="#000000" fill-rule="evenodd" node-id="162" stroke="none" target-height="480.8394" target-width="520.41534" target-x="20" target-y="13.628363"></path></clipPath><clipPath id="mask-12_28" node-id="96"><path d="M 20.00 494.47 L 540.42 494.47 L 540.42 13.63 L 20.00 13.63 Z" fill="#000000" fill-rule="evenodd" node-id="162" stroke="none" target-height="480.8394" target-width="520.41534" target-x="20" target-y="13.628363"></path></clipPath><clipPath id="mask-12_27" node-id="96"><path d="M 20.00 494.47 L 540.42 494.47 L 540.42 13.63 L 20.00 13.63 Z" fill="#000000" fill-rule="evenodd" node-id="162" stroke="none" target-height="480.8394" target-width="520.41534" target-x="20" target-y="13.628363"></path></clipPath><clipPath id="mask-12_26" node-id="96"><path d="M 20.00 494.47 L 540.42 494.47 L 540.42 13.63 L 20.00 13.63 Z" fill="#000000" fill-rule="evenodd" node-id="162" stroke="none" target-height="480.8394" target-width="520.41534" target-x="20" target-y="13.628363"></path></clipPath><clipPath id="mask-12_25" node-id="96"><path d="M 20.00 494.47 L 540.42 494.47 L 540.42 13.63 L 20.00 13.63 Z" fill="#000000" fill-rule="evenodd" node-id="162" stroke="none" target-height="480.8394" target-width="520.41534" target-x="20" target-y="13.628363"></path></clipPath><clipPath id="mask-12_24" node-id="96"><path d="M 20.00 494.47 L 540.42 494.47 L 540.42 13.63 L 20.00 13.63 Z" fill="#000000" fill-rule="evenodd" node-id="162" stroke="none" target-height="480.8394" target-width="520.41534" target-x="20" target-y="13.628363"></path></clipPath><clipPath id="mask-12_23" node-id="96"><path d="M 20.00 494.47 L 540.42 494.47 L 540.42 13.63 L 20.00 13.63 Z" fill="#000000" fill-rule="evenodd" node-id="162" stroke="none" target-height="480.8394" target-width="520.41534" target-x="20" target-y="13.628363"></path></clipPath><clipPath id="mask-12_22" node-id="96"><path d="M 20.00 494.47 L 540.42 494.47 L 540.42 13.63 L 20.00 13.63 Z" fill="#000000" fill-rule="evenodd" node-id="162" stroke="none" target-height="480.8394" target-width="520.41534" target-x="20" target-y="13.628363"></path></clipPath><clipPath id="mask-12_21" node-id="96"><path d="M 20.00 494.47 L 540.42 494.47 L 540.42 13.63 L 20.00 13.63 Z" fill="#000000" fill-rule="evenodd" node-id="162" stroke="none" target-height="480.8394" target-width="520.41534" target-x="20" target-y="13.628363"></path></clipPath><clipPath id="mask-12_20" node-id="96"><path d="M 20.00 494.47 L 540.42 494.47 L 540.42 13.63 L 20.00 13.63 Z" fill="#000000" fill-rule="evenodd" node-id="162" stroke="none" target-height="480.8394" target-width="520.41534" target-x="20" target-y="13.628363"></path></clipPath><clipPath id="mask-12_19" node-id="96"><path d="M 20.00 494.47 L 540.42 494.47 L 540.42 13.63 L 20.00 13.63 Z" fill="#000000" fill-rule="evenodd" node-id="162" stroke="none" target-height="480.8394" target-width="520.41534" target-x="20" target-y="13.628363"></path></clipPath><clipPath id="mask-12" node-id="96"><path d="M -0.00 480.84 L 520.42 480.84 L 520.42 0.00 L -0.00 0.00 Z" fill="#000000" fill-rule="evenodd" node-id="162" stroke="none" target-height="480.8394" target-width="520.41534" target-x="-0" target-y="0"></path></clipPath></defs><g node-id="460"><path d="M 77.44 386.96 L 540.51 386.96 L 540.51 81.83 L 77.44 81.83 Z" fill="#e6e5ce" fill-rule="evenodd" group-id="1" id="Fill-1" node-id="13" stroke="none" target-height="305.1282" target-width="463.0769" target-x="77.4359" target-y="81.83349"></path><path d="M 84.62 379.78 L 533.33 379.78 L 533.33 89.01 L 84.62 89.01 Z" fill="#d6ede7" fill-rule="evenodd" group-id="1" id="Fill-2" node-id="14" stroke="none" target-height="290.76923" target-width="448.71793" target-x="84.61539" target-y="89.01298"></path><path d="M 84.62 164.40 L 533.33 164.40 L 533.33 89.01 L 84.62 89.01 Z" fill="#c2e4dc" fill-rule="evenodd" group-id="1" id="Fill-3" node-id="15" stroke="none" target-height="75.38462" target-width="448.71793" target-x="84.61539" target-y="89.01298"></path><path d="M 84.62 121.32 L 533.33 121.32 L 533.33 89.01 L 84.62 89.01 Z" fill="#aedbd0" fill-rule="evenodd" group-id="1" id="Fill-4" node-id="16" stroke="none" target-height="32.307693" target-width="448.71793" target-x="84.61539" target-y="89.01298"></path><g node-id="461"><g node-id="465"><g clip-path="url(#mask-2)" group-id="1,2,6" node-id="177"><path d="M 192.31 345.47 L 192.94 342.79 L 193.24 340.13 L 193.23 337.47 L 192.91 334.83 L 192.32 332.27 L 191.45 329.79 L 190.84 327.88 L 190.55 325.97 L 190.57 324.06 L 190.90 322.18 L 191.54 320.44 L 192.50 318.82 L 194.22 316.15 L 195.68 313.21 L 196.85 309.96 L 197.67 306.53 L 198.11 303.12 L 198.18 299.74 L 197.89 296.36 L 196.97 291.92 L 195.50 287.73 L 193.48 283.74 L 192.45 281.63 L 191.78 279.48 L 191.46 277.24 L 191.50 274.99 L 191.91 272.82 L 192.70 270.72 L 193.88 267.67 L 194.50 264.99 L 194.78 262.33 L 194.73 259.67 L 194.37 257.03 L 193.72 254.49 L 192.78 252.03 L 191.57 249.70 L 190.12 247.54 L 188.41 245.55 L 187.02 243.75 L 186.08 241.81 L 185.56 239.69 L 185.50 237.52 L 185.90 235.46 L 186.80 233.47 L 188.29 230.72 L 189.41 227.80 L 190.14 224.62 L 190.46 221.46 L 190.37 218.30 L 189.91 215.17 L 189.09 212.16 L 187.93 209.26 L 186.43 206.51 L 184.64 204.00 L 182.54 201.69 L 180.18 199.67 L 177.58 197.98 L 174.70 196.60 L 174.66 196.59 L 173.51 195.84 L 172.73 194.73 L 172.38 193.40 L 172.53 192.00 L 172.59 191.80 L 173.52 187.72 L 173.92 183.67 L 173.79 179.63 L 173.17 175.63 L 172.10 171.79 L 170.57 168.09 L 168.62 164.60 L 166.28 161.41 L 163.56 158.50 L 160.49 155.96 L 157.11 153.86 L 153.37 152.18 L 149.68 151.13 L 146.04 150.63 L 142.42 150.65 L 138.84 151.17 L 135.41 152.15 L 132.11 153.59 L 129.02 155.45 L 126.21 157.71 L 123.65 160.37 L 121.47 163.34 L 119.67 166.66 L 118.27 170.35 L 117.40 174.06 L 116.97 177.76 L 116.98 181.45 L 116.95 184.16 L 116.56 186.71 L 115.83 189.13 L 114.77 191.41 L 113.43 193.44 L 111.81 195.24 L 109.94 196.76 L 107.85 197.95 L 105.51 198.81 L 101.42 200.18 L 97.54 201.99 L 93.85 204.27 L 90.44 206.94 L 87.32 210.02 L 84.48 213.54 L 82.04 217.35 L 79.99 221.54 L 78.32 226.15 L 77.21 230.69 L 76.57 235.22 L 76.39 239.75 L 76.66 244.28 L 77.33 248.71 L 78.42 253.06 L 79.00 255.63 L 79.23 258.13 L 79.11 260.61 L 78.68 263.05 L 77.94 265.34 L 76.90 267.51 L 75.56 269.50 L 73.97 271.25 L 72.09 272.77 L 69.29 274.95 L 66.73 277.46 L 64.40 280.33 L 62.40 283.44 L 60.71 286.86 L 59.34 290.64 L 58.28 295.26 L 57.81 299.85 L 57.91 304.44 L 58.55 308.98 L 59.69 313.36 L 61.34 317.59 L 63.46 321.60 L 66.01 325.29 L 68.99 328.69 L 70.11 330.19 L 70.79 331.90 L 70.99 333.72 L 70.70 335.56 L 70.68 335.63 L 70.19 338.03 L 70.10 340.39 L 70.40 342.74 L 71.07 345.01 L 72.06 347.11 L 73.37 349.05 L 74.98 350.74 L 76.84 352.12 L 78.97 353.21 L 79.13 353.27 L 79.63 353.58 L 79.98 354.06 L 80.14 354.63 L 80.08 355.24 L 80.08 355.25 L 79.38 358.64 L 79.25 361.97 L 79.68 365.27 L 80.62 368.48 L 82.01 371.43 L 83.87 374.16 L 86.13 376.55 L 88.75 378.49 L 91.75 380.02 L 93.92 380.72 L 96.05 381.12 L 97.67 381.47 L 99.17 382.11 L 100.58 383.03 L 102.38 384.81 L 103.75 387.07 L 105.67 390.84 L 107.90 394.36 L 110.44 397.65 L 113.31 400.73 L 116.45 403.51 L 119.83 405.95 L 123.49 408.04 L 127.44 409.80 L 131.29 411.02 L 135.09 411.81 L 138.85 412.18 L 142.61 412.13 L 146.36 411.70 L 149.98 410.91 L 153.49 409.76 L 156.91 408.24 L 160.16 406.39 L 163.19 404.24 L 166.02 401.77 L 168.66 398.97 L 171.00 395.94 L 173.03 392.65 L 174.76 389.07 L 176.19 385.18 L 177.30 380.70 L 177.94 376.24 L 178.11 371.77 L 178.30 368.57 L 178.92 365.56 L 179.96 362.73 L 181.41 360.09 L 183.22 357.77 L 185.41 355.74 L 187.62 353.72 L 189.55 351.30 L 191.12 348.58 L 192.31 345.47" fill="#89cebc" fill-rule="evenodd" group-id="1,2,6,71" id="Fill-5" node-id="22" stroke="none" target-height="261.5511" target-width="140.37346" target-x="57.80605" target-y="150.6262"></path></g></g><g node-id="466"><g clip-path="url(#mask-4)" group-id="1,2,7" node-id="184"><path d="M 183.40 339.44 L 183.81 337.03 L 183.91 334.66 L 183.73 332.31 L 182.96 328.86 L 181.63 325.62 L 180.73 323.13 L 180.47 320.60 L 180.65 318.92 L 181.13 317.34 L 181.90 315.83 L 183.30 313.36 L 184.44 310.66 L 185.30 307.72 L 185.93 303.60 L 185.95 299.58 L 185.39 295.61 L 184.27 291.74 L 182.67 288.12 L 180.58 284.71 L 179.51 282.91 L 178.76 281.05 L 178.33 279.09 L 178.23 277.09 L 178.47 275.15 L 179.05 273.24 L 179.93 270.46 L 180.33 268.04 L 180.42 265.67 L 180.20 263.32 L 179.37 259.90 L 177.95 256.68 L 176.00 253.77 L 173.57 251.23 L 172.18 249.71 L 171.21 248.06 L 170.60 246.22 L 170.40 244.30 L 170.65 242.45 L 171.33 240.63 L 172.51 238.09 L 173.36 235.45 L 173.88 231.61 L 173.77 227.89 L 173.02 224.24 L 171.69 220.75 L 169.86 217.57 L 167.51 214.66 L 164.73 212.18 L 161.58 210.22 L 158.00 208.76 L 157.97 208.75 L 156.87 208.15 L 156.09 207.22 L 155.69 206.07 L 155.74 204.82 L 155.78 204.64 L 156.37 200.96 L 156.48 197.36 L 156.11 193.79 L 155.29 190.29 L 154.08 186.96 L 152.45 183.77 L 150.45 180.81 L 148.13 178.13 L 145.46 175.73 L 142.51 173.68 L 139.30 172.03 L 135.79 170.78 L 132.37 170.09 L 129.02 169.87 L 125.73 170.12 L 122.50 170.81 L 119.44 171.90 L 116.53 173.38 L 113.83 175.23 L 111.41 177.40 L 109.25 179.92 L 107.45 182.70 L 106.03 185.75 L 104.99 189.10 L 104.43 192.45 L 104.27 195.74 L 104.51 199.01 L 104.65 201.41 L 104.46 203.70 L 103.95 205.88 L 103.13 207.96 L 102.04 209.85 L 100.67 211.55 L 99.07 213.01 L 97.24 214.19 L 95.16 215.11 L 91.52 216.58 L 88.11 218.44 L 84.90 220.68 L 81.96 223.28 L 79.31 226.20 L 76.95 229.49 L 74.97 233.02 L 73.36 236.86 L 72.14 241.04 L 71.41 245.14 L 71.12 249.19 L 71.24 253.21 L 71.76 257.20 L 72.66 261.09 L 73.92 264.87 L 74.61 267.10 L 74.97 269.31 L 75.03 271.51 L 74.79 273.70 L 74.26 275.77 L 73.45 277.76 L 72.36 279.60 L 71.02 281.25 L 69.40 282.72 L 66.99 284.83 L 64.81 287.22 L 62.87 289.90 L 61.25 292.79 L 59.93 295.93 L 58.93 299.35 L 58.25 303.52 L 58.11 307.61 L 58.48 311.66 L 59.36 315.64 L 60.67 319.44 L 62.44 323.09 L 64.62 326.50 L 67.17 329.61 L 70.10 332.43 L 71.22 333.69 L 71.94 335.16 L 72.24 336.76 L 72.09 338.40 L 72.08 338.47 L 71.78 340.63 L 71.85 342.72 L 72.27 344.78 L 73.02 346.75 L 74.05 348.54 L 75.37 350.18 L 76.94 351.57 L 78.71 352.68 L 80.73 353.50 L 80.87 353.55 L 81.35 353.80 L 81.70 354.20 L 81.88 354.69 L 81.87 355.23 L 81.86 355.25 L 81.45 358.29 L 81.54 361.24 L 82.13 364.14 L 83.19 366.92 L 84.64 369.44 L 86.51 371.74 L 88.71 373.71 L 91.21 375.27 L 94.05 376.43 L 96.07 376.91 L 98.03 377.13 L 100.24 377.55 L 102.28 378.53 L 104.02 380.00 L 105.41 381.91 L 108.12 386.13 L 111.30 389.95 L 114.97 393.40 L 118.00 395.66 L 121.23 397.60 L 124.70 399.22 L 128.41 400.53 L 131.98 401.37 L 135.49 401.82 L 138.94 401.91 L 142.36 401.63 L 146.85 400.73 L 151.09 399.28 L 155.13 397.28 L 158.88 394.76 L 162.24 391.78 L 165.25 388.32 L 167.19 385.48 L 168.83 382.44 L 170.17 379.16 L 171.23 375.63 L 171.96 371.59 L 172.26 367.60 L 172.13 363.63 L 172.11 360.79 L 172.48 358.09 L 173.25 355.51 L 174.40 353.09 L 175.90 350.92 L 177.77 348.98 L 179.66 347.05 L 181.26 344.79 L 182.51 342.27 L 183.40 339.44" fill="#f4ffd4" fill-rule="evenodd" group-id="1,2,7,72" id="Fill-7" node-id="27" stroke="none" target-height="232.0392" target-width="127.84616" target-x="58.10527" target-y="169.87025"></path></g></g><g node-id="467"><g clip-path="url(#mask-6_26)" group-id="1,2,8" node-id="189"><path d="M 151.05 382.94 L 262.92 382.94 L 262.92 212.56 L 151.05 212.56 Z" fill="#ef918e" fill-rule="evenodd" group-id="1,2,8" id="Fill-9" node-id="31" stroke="none" target-height="170.37883" target-width="111.8674" target-x="151.051" target-y="212.56224"></path></g></g><g node-id="468"><g clip-path="url(#mask-6_27)" group-id="1,2,9" node-id="193"><path d="M 248.55 245.33 L 250.49 245.33 L 250.49 227.98 L 248.55 227.98 L 248.55 245.33 Z M 227.57 245.33 L 229.51 245.33 L 229.51 227.98 L 227.57 227.98 L 227.57 245.33 Z M 206.60 245.33 L 208.54 245.33 L 208.54 227.98 L 206.60 227.98 L 206.60 245.33 Z M 185.62 245.33 L 187.56 245.33 L 187.56 227.98 L 185.62 227.98 L 185.62 245.33 Z M 164.65 245.33 L 166.59 245.33 L 166.59 227.98 L 164.65 227.98 L 164.65 245.33 Z" fill="#184657" fill-rule="evenodd" group-id="1,2,9" id="Fill-11" node-id="32" stroke="none" target-height="17.346115" target-width="85.84296" target-x="164.6459" target-y="227.98125"></path></g></g><g node-id="469"><g clip-path="url(#mask-6_28)" group-id="1,2,10" node-id="197"><path d="M 248.55 279.44 L 250.49 279.44 L 250.49 262.10 L 248.55 262.10 L 248.55 279.44 Z M 227.57 279.44 L 229.51 279.44 L 229.51 262.10 L 227.57 262.10 L 227.57 279.44 Z M 206.60 279.44 L 208.54 279.44 L 208.54 262.10 L 206.60 262.10 L 206.60 279.44 Z M 185.62 279.44 L 187.56 279.44 L 187.56 262.10 L 185.62 262.10 L 185.62 279.44 Z M 164.65 279.44 L 166.59 279.44 L 166.59 262.10 L 164.65 262.10 L 164.65 279.44 Z" fill="#184657" fill-rule="evenodd" group-id="1,2,10" id="Fill-12" node-id="33" stroke="none" target-height="17.34613" target-width="85.84296" target-x="164.6459" target-y="262.09564"></path></g></g><g node-id="470"><g clip-path="url(#mask-6_29)" group-id="1,2,11" node-id="201"><path d="M 248.55 313.56 L 250.49 313.56 L 250.49 296.21 L 248.55 296.21 L 248.55 313.56 Z M 227.57 313.56 L 229.51 313.56 L 229.51 296.21 L 227.57 296.21 L 227.57 313.56 Z M 206.60 313.56 L 208.54 313.56 L 208.54 296.21 L 206.60 296.21 L 206.60 313.56 Z M 185.62 313.56 L 187.56 313.56 L 187.56 296.21 L 185.62 296.21 L 185.62 313.56 Z M 164.65 313.56 L 166.59 313.56 L 166.59 296.21 L 164.65 296.21 L 164.65 313.56 Z" fill="#184657" fill-rule="evenodd" group-id="1,2,11" id="Fill-13" node-id="34" stroke="none" target-height="17.3461" target-width="85.84296" target-x="164.6459" target-y="296.21005"></path></g></g><g node-id="471"><g clip-path="url(#mask-6_30)" group-id="1,2,12" node-id="205"><path d="M 248.55 347.67 L 250.49 347.67 L 250.49 330.32 L 248.55 330.32 L 248.55 347.67 Z M 227.57 347.67 L 229.51 347.67 L 229.51 330.32 L 227.57 330.32 L 227.57 347.67 Z M 206.60 347.67 L 208.54 347.67 L 208.54 330.32 L 206.60 330.32 L 206.60 347.67 Z M 185.62 347.67 L 187.56 347.67 L 187.56 330.32 L 185.62 330.32 L 185.62 347.67 Z M 164.65 347.67 L 166.59 347.67 L 166.59 330.32 L 164.65 330.32 L 164.65 347.67 Z" fill="#184657" fill-rule="evenodd" group-id="1,2,12" id="Fill-14" node-id="35" stroke="none" target-height="17.346527" target-width="85.84296" target-x="164.6459" target-y="330.32404"></path></g></g><g node-id="472"><g clip-path="url(#mask-6_31)" group-id="1,2,13" node-id="209"><path d="M 248.55 381.78 L 250.49 381.78 L 250.49 364.44 L 248.55 364.44 L 248.55 381.78 Z M 227.57 381.78 L 229.51 381.78 L 229.51 364.44 L 227.57 364.44 L 227.57 381.78 Z M 206.60 381.78 L 208.54 381.78 L 208.54 364.44 L 206.60 364.44 L 206.60 381.78 Z M 185.62 381.78 L 187.56 381.78 L 187.56 364.44 L 185.62 364.44 L 185.62 381.78 Z M 164.65 381.78 L 166.59 381.78 L 166.59 364.44 L 164.65 364.44 L 164.65 381.78 Z" fill="#184657" fill-rule="evenodd" group-id="1,2,13" id="Fill-15" node-id="36" stroke="none" target-height="17.34613" target-width="85.84296" target-x="164.6459" target-y="364.43842"></path></g></g><g node-id="473"><g clip-path="url(#mask-6_32)" group-id="1,2,14" node-id="213"><path d="M 431.14 344.50 L 432.82 346.05 L 434.21 347.83 L 435.32 349.86 L 436.12 352.03 L 436.60 354.34 L 436.75 356.80 L 436.88 360.23 L 437.36 363.65 L 438.22 367.09 L 439.74 371.02 L 441.66 374.53 L 444.00 377.68 L 446.73 380.49 L 449.73 382.85 L 453.02 384.79 L 456.54 386.29 L 460.18 387.28 L 464.00 387.78 L 467.84 387.76 L 471.71 387.17 L 475.64 385.99 L 479.63 384.13 L 483.24 381.82 L 486.49 379.03 L 489.37 375.84 L 491.81 372.35 L 493.83 368.54 L 494.88 366.81 L 496.26 365.44 L 497.91 364.46 L 499.74 363.97 L 501.37 363.66 L 503.04 363.13 L 505.34 361.96 L 507.35 360.46 L 509.09 358.63 L 510.51 356.53 L 511.58 354.27 L 512.30 351.81 L 512.63 349.27 L 512.53 346.72 L 512.00 344.12 L 512.00 344.11 L 511.95 343.64 L 512.07 343.20 L 512.34 342.84 L 512.73 342.59 L 512.85 342.55 L 514.49 341.72 L 515.91 340.66 L 517.14 339.35 L 518.57 337.08 L 519.43 334.51 L 519.66 332.71 L 519.59 330.90 L 519.21 329.05 L 519.20 329.00 L 518.97 327.59 L 519.13 326.19 L 519.65 324.88 L 520.51 323.73 L 522.80 321.12 L 524.75 318.29 L 526.38 315.21 L 527.65 311.96 L 528.53 308.60 L 529.02 305.11 L 529.10 301.59 L 528.73 298.07 L 527.91 294.52 L 526.86 291.62 L 525.57 288.99 L 524.04 286.60 L 522.25 284.40 L 520.28 282.48 L 518.13 280.80 L 516.05 278.98 L 514.44 276.76 L 513.33 274.24 L 512.74 271.47 L 512.71 268.61 L 513.27 265.67 L 514.11 262.33 L 514.63 258.93 L 514.83 255.45 L 514.69 251.97 L 514.20 248.50 L 513.35 245.01 L 512.07 241.47 L 510.49 238.26 L 508.62 235.33 L 506.44 232.64 L 504.04 230.27 L 501.43 228.22 L 498.59 226.47 L 495.61 225.08 L 492.48 224.02 L 490.68 223.36 L 489.08 222.45 L 487.64 221.28 L 485.86 219.15 L 484.55 216.59 L 483.81 213.78 L 483.67 210.70 L 483.68 207.87 L 483.35 205.03 L 482.68 202.18 L 481.60 199.35 L 480.23 196.80 L 478.55 194.52 L 476.59 192.47 L 474.43 190.75 L 472.06 189.32 L 469.52 188.21 L 466.89 187.46 L 464.14 187.06 L 461.36 187.04 L 458.57 187.43 L 455.74 188.23 L 452.87 189.52 L 450.27 191.14 L 447.92 193.08 L 445.82 195.32 L 444.03 197.76 L 442.53 200.45 L 441.36 203.29 L 440.54 206.23 L 440.06 209.31 L 439.96 212.41 L 440.27 215.51 L 440.98 218.65 L 441.03 218.80 L 441.14 219.88 L 440.88 220.89 L 440.28 221.75 L 439.39 222.32 L 439.36 222.33 L 436.46 223.81 L 433.93 225.69 L 431.74 228.00 L 429.94 230.64 L 428.60 233.50 L 427.69 236.60 L 427.27 239.79 L 427.40 243.01 L 428.07 246.28 L 428.94 248.52 L 430.08 250.63 L 430.76 252.17 L 431.08 253.75 L 431.02 255.41 L 430.63 257.04 L 429.90 258.53 L 428.84 259.91 L 426.94 262.26 L 425.49 264.86 L 424.48 267.74 L 423.98 270.75 L 424.03 273.78 L 424.64 276.88 L 425.55 279.23 L 426.15 280.84 L 426.47 282.50 L 426.50 284.23 L 426.03 286.79 L 424.95 289.22 L 423.40 292.29 L 422.27 295.51 L 421.56 298.91 L 421.33 302.37 L 421.59 305.84 L 422.36 309.35 L 423.26 311.84 L 424.38 314.10 L 425.70 316.15 L 426.71 318.05 L 427.18 320.17 L 427.12 322.37 L 426.51 324.57 L 425.58 327.45 L 425.14 330.47 L 425.22 333.53 L 425.84 336.61 L 426.76 338.99 L 427.96 341.09 L 429.44 342.94 L 431.14 344.50" fill="#89cebc" fill-rule="evenodd" group-id="1,2,14" id="Fill-16" node-id="37" stroke="none" target-height="200.74348" target-width="107.76831" target-x="421.32727" target-y="187.04008"></path></g></g><g node-id="474"><g clip-path="url(#mask-6_33)" group-id="1,2,15" node-id="217"><path d="M 437.01 339.30 L 438.44 340.79 L 439.59 342.46 L 440.48 344.32 L 441.07 346.30 L 441.35 348.37 L 441.33 350.55 L 441.24 353.60 L 441.47 356.66 L 442.03 359.76 L 443.16 363.33 L 444.69 366.56 L 446.62 369.50 L 448.93 372.16 L 451.51 374.44 L 454.38 376.38 L 457.49 377.92 L 460.75 379.03 L 464.19 379.72 L 467.69 379.94 L 471.25 379.67 L 474.90 378.88 L 478.65 377.48 L 482.08 375.66 L 485.21 373.40 L 488.03 370.76 L 490.47 367.82 L 492.55 364.58 L 493.62 363.12 L 494.96 361.99 L 496.52 361.23 L 498.22 360.91 L 499.73 360.74 L 501.27 360.37 L 503.45 359.48 L 505.37 358.29 L 507.07 356.78 L 508.50 355.01 L 509.61 353.07 L 510.42 350.94 L 510.88 348.72 L 510.95 346.45 L 510.63 344.11 L 510.62 344.10 L 510.75 343.31 L 511.39 342.81 L 511.50 342.78 L 513.75 341.75 L 515.61 340.22 L 517.05 338.29 L 517.99 336.08 L 518.38 333.70 L 518.14 331.23 L 518.13 331.19 L 518.01 329.92 L 518.25 328.69 L 518.80 327.57 L 519.66 326.60 L 521.91 324.43 L 523.86 322.05 L 525.54 319.43 L 526.90 316.63 L 527.91 313.71 L 528.57 310.66 L 528.87 307.54 L 528.76 304.40 L 528.24 301.21 L 527.46 298.58 L 526.45 296.17 L 525.21 293.95 L 522.90 290.95 L 520.19 288.44 L 518.40 286.68 L 517.10 284.65 L 516.23 282.31 L 515.87 279.84 L 516.03 277.34 L 516.73 274.74 L 517.70 271.83 L 518.38 268.85 L 518.78 265.79 L 518.88 262.70 L 518.65 259.59 L 518.10 256.45 L 516.99 252.82 L 515.54 249.54 L 513.75 246.58 L 511.61 243.91 L 509.14 241.51 L 506.47 239.50 L 503.57 237.84 L 500.42 236.54 L 498.10 235.41 L 496.19 233.80 L 494.70 231.80 L 493.68 229.45 L 493.18 226.91 L 493.24 224.18 L 493.43 221.67 L 493.31 219.14 L 492.88 216.57 L 491.73 213.17 L 490.09 210.20 L 487.96 207.60 L 485.40 205.41 L 482.57 203.73 L 479.42 202.53 L 476.13 201.90 L 472.75 201.89 L 469.23 202.51 L 466.52 203.49 L 464.06 204.75 L 461.81 206.30 L 459.77 208.15 L 457.42 210.97 L 455.59 214.07 L 454.26 217.49 L 453.50 221.08 L 453.37 224.73 L 453.89 228.50 L 453.92 228.64 L 453.96 229.60 L 453.65 230.48 L 453.05 231.20 L 452.21 231.66 L 452.18 231.66 L 449.44 232.79 L 447.02 234.29 L 444.88 236.20 L 443.08 238.43 L 441.68 240.87 L 440.65 243.55 L 440.08 246.35 L 439.99 249.21 L 440.40 252.15 L 441.04 254.18 L 441.95 256.13 L 442.48 257.53 L 442.66 258.95 L 442.51 260.42 L 442.05 261.83 L 441.30 263.10 L 440.23 264.26 L 438.35 266.23 L 436.88 268.44 L 435.78 270.92 L 435.13 273.55 L 434.99 276.24 L 435.35 279.03 L 436.03 281.16 L 436.60 283.37 L 436.57 285.65 L 435.99 287.88 L 434.85 289.97 L 433.24 292.59 L 432.02 295.37 L 431.16 298.33 L 430.73 301.38 L 430.75 304.47 L 431.22 307.63 L 432.30 310.95 L 433.84 313.86 L 434.64 315.61 L 434.94 317.52 L 434.74 319.46 L 434.04 321.37 L 433.02 323.86 L 432.43 326.50 L 432.31 329.22 L 432.68 331.98 L 433.69 334.87 L 435.13 337.28 L 437.01 339.30" fill="#f4ffd4" fill-rule="evenodd" group-id="1,2,15" id="Fill-17" node-id="38" stroke="none" target-height="178.05565" target-width="98.13919" target-x="430.72653" target-y="201.88731"></path></g></g><g node-id="475"><g clip-path="url(#mask-6_34)" group-id="1,2,16" node-id="221"><path d="M 219.52 385.57 L 222.36 383.13 L 224.94 380.45 L 227.25 377.51 L 229.26 374.36 L 230.94 371.01 L 232.31 367.46 L 233.30 363.78 L 233.90 359.95 L 234.12 355.95 L 233.91 352.06 L 233.34 348.34 L 232.42 344.77 L 231.15 341.34 L 228.94 336.99 L 226.24 333.02 L 223.04 329.41 L 219.41 326.24 L 215.41 323.56 L 211.02 321.37 L 207.57 320.11 L 203.97 319.19 L 200.23 318.63 L 196.30 318.42 L 192.74 318.59 L 189.30 319.07 L 187.94 315.05 L 186.21 311.30 L 184.10 307.78 L 181.60 304.49 L 178.76 301.48 L 175.66 298.82 L 172.27 296.50 L 168.58 294.50 L 164.72 292.91 L 160.68 291.76 L 156.44 291.05 L 151.97 290.78 L 147.95 291.00 L 144.11 291.58 L 140.44 292.51 L 136.90 293.80 L 132.41 296.05 L 128.32 298.78 L 124.60 302.03 L 121.32 305.73 L 118.56 309.78 L 116.31 314.24 L 115.00 317.75 L 114.06 321.40 L 113.48 325.20 L 113.27 329.19 L 113.44 332.81 L 113.93 336.29 L 114.73 339.65 L 110.84 338.86 L 106.73 338.58 L 102.59 338.87 L 98.69 339.65 L 94.99 340.93 L 91.49 342.68 L 88.30 344.81 L 85.40 347.35 L 82.85 350.23 L 80.70 353.39 L 78.94 356.86 L 77.65 360.53 L 76.86 364.40 L 76.57 368.51 L 76.74 371.67 L 77.21 374.70 L 77.99 377.60 L 79.06 380.42 L 80.37 383.07 L 81.95 385.57 L 219.52 385.57 Z" fill="#41b093" fill-rule="evenodd" group-id="1,2,16" id="Fill-18" node-id="39" stroke="none" target-height="94.78314" target-width="157.54709" target-x="76.57008" target-y="290.78394"></path></g></g><g node-id="476"><g clip-path="url(#mask-6_35)" group-id="1,2,17" node-id="225"><path d="M 100.57 385.57 L 97.93 383.27 L 95.59 380.75 L 93.54 377.97 L 91.78 374.92 L 90.37 371.71 L 89.36 368.35 L 88.73 364.81 L 88.49 361.06 L 88.79 356.80 L 89.61 352.79 L 90.95 348.98 L 92.78 345.38 L 95.01 342.09 L 97.66 339.11 L 100.66 336.48 L 103.97 334.27 L 107.60 332.45 L 111.44 331.13 L 115.48 330.31 L 119.78 330.01 L 122.73 330.15 L 125.57 330.55 L 126.70 327.22 L 128.13 324.12 L 129.88 321.21 L 131.95 318.49 L 134.29 316.00 L 136.86 313.80 L 139.66 311.87 L 142.71 310.22 L 145.91 308.91 L 149.25 307.96 L 152.76 307.37 L 156.46 307.15 L 160.86 307.45 L 165.00 308.28 L 168.92 309.64 L 172.64 311.50 L 176.02 313.77 L 179.10 316.45 L 181.81 319.51 L 184.10 322.87 L 185.96 326.55 L 187.33 330.45 L 188.17 334.56 L 188.48 338.92 L 188.16 343.37 L 187.27 347.58 L 190.49 346.92 L 193.88 346.69 L 197.31 346.93 L 200.54 347.58 L 203.60 348.64 L 206.50 350.08 L 209.13 351.85 L 211.53 353.95 L 213.64 356.33 L 215.42 358.94 L 216.88 361.82 L 217.95 364.85 L 218.60 368.06 L 218.84 371.46 L 218.54 375.34 L 217.67 378.98 L 216.26 382.42 L 214.39 385.57 L 100.57 385.57 Z" fill="#41b093" fill-rule="evenodd" group-id="1,2,17" id="Fill-19" node-id="40" stroke="none" target-height="78.42023" target-width="130.34833" target-x="88.49153" target-y="307.14685"></path></g></g><g node-id="477"><g clip-path="url(#mask-6_36)" group-id="1,2,18" node-id="229"><path d="M 492.19 385.57 L 495.04 383.13 L 497.61 380.45 L 499.93 377.51 L 501.94 374.36 L 503.62 371.01 L 504.98 367.46 L 505.97 363.78 L 506.58 359.95 L 506.79 355.95 L 506.58 352.06 L 506.01 348.34 L 505.09 344.77 L 503.82 341.34 L 501.62 336.99 L 498.92 333.02 L 495.72 329.41 L 492.08 326.24 L 488.09 323.56 L 483.70 321.37 L 480.24 320.11 L 476.65 319.19 L 472.90 318.63 L 468.97 318.42 L 465.41 318.59 L 461.98 319.07 L 460.62 315.05 L 458.88 311.30 L 456.77 307.78 L 454.27 304.49 L 451.44 301.48 L 448.33 298.82 L 444.95 296.50 L 441.26 294.50 L 437.40 292.91 L 433.36 291.76 L 429.12 291.05 L 424.64 290.78 L 420.62 291.00 L 416.79 291.58 L 413.11 292.51 L 409.58 293.80 L 405.08 296.05 L 401.00 298.78 L 397.28 302.03 L 394.00 305.73 L 391.24 309.78 L 388.98 314.24 L 387.68 317.75 L 386.74 321.40 L 386.16 325.20 L 385.94 329.19 L 386.12 332.81 L 386.61 336.29 L 387.41 339.65 L 383.52 338.86 L 379.41 338.58 L 375.27 338.87 L 371.37 339.65 L 367.67 340.93 L 364.17 342.68 L 360.98 344.81 L 358.08 347.35 L 355.53 350.23 L 353.38 353.39 L 351.62 356.86 L 350.33 360.53 L 349.53 364.40 L 349.25 368.51 L 349.42 371.67 L 349.89 374.70 L 350.67 377.60 L 351.73 380.42 L 353.05 383.07 L 354.62 385.57 L 492.19 385.57 Z" fill="#41b093" fill-rule="evenodd" group-id="1,2,18" id="Fill-20" node-id="41" stroke="none" target-height="94.78314" target-width="157.54709" target-x="349.24673" target-y="290.78394"></path></g></g><g node-id="478"><g clip-path="url(#mask-6_37)" group-id="1,2,19" node-id="233"><path d="M 373.25 385.57 L 370.60 383.27 L 368.26 380.75 L 366.22 377.97 L 364.45 374.92 L 363.05 371.71 L 362.03 368.35 L 361.40 364.81 L 361.17 361.06 L 361.47 356.80 L 362.29 352.79 L 363.63 348.98 L 365.45 345.38 L 367.68 342.09 L 370.33 339.11 L 373.34 336.48 L 376.65 334.27 L 380.28 332.45 L 384.11 331.13 L 388.16 330.31 L 392.46 330.01 L 395.40 330.15 L 398.25 330.55 L 399.37 327.22 L 400.81 324.12 L 402.55 321.21 L 404.62 318.49 L 406.97 316.00 L 409.54 313.80 L 412.34 311.87 L 415.39 310.22 L 418.59 308.91 L 421.93 307.96 L 425.44 307.37 L 429.14 307.15 L 433.54 307.45 L 437.68 308.28 L 441.60 309.64 L 445.32 311.50 L 448.70 313.77 L 451.78 316.45 L 454.49 319.51 L 456.77 322.87 L 458.64 326.55 L 460.01 330.45 L 460.85 334.56 L 461.16 338.92 L 460.84 343.37 L 459.94 347.58 L 463.16 346.92 L 466.56 346.69 L 469.99 346.93 L 473.22 347.58 L 476.27 348.64 L 479.17 350.08 L 481.81 351.85 L 484.21 353.95 L 486.32 356.33 L 488.10 358.94 L 489.56 361.82 L 490.62 364.85 L 491.28 368.06 L 491.52 371.46 L 491.21 375.34 L 490.34 378.98 L 488.94 382.42 L 487.07 385.57 L 373.25 385.57 Z" fill="#41b093" fill-rule="evenodd" group-id="1,2,19" id="Fill-21" node-id="42" stroke="none" target-height="78.42023" target-width="130.34833" target-x="361.16812" target-y="307.14685"></path></g></g><g node-id="479"><g clip-path="url(#mask-6_38)" group-id="1,2,20" node-id="237"><path d="M 508.22 138.72 L 504.51 136.99 L 501.02 135.78 L 497.71 135.05 L 494.36 134.82 L 491.26 135.17 L 488.36 136.08 L 486.36 137.14 L 484.47 138.58 L 482.66 140.46 L 480.94 142.83 L 479.71 145.38 L 479.21 147.65 L 479.32 149.74 L 479.95 151.77 L 481.07 153.85 L 482.76 155.98 L 485.82 158.96 L 489.83 162.25 L 499.09 169.22 L 508.04 175.98 L 517.95 183.35 L 527.12 190.11 L 533.88 195.06 L 536.50 196.98 L 554.88 173.34 L 552.18 171.17 L 545.19 165.62 L 535.62 158.15 L 525.13 150.21 L 515.44 143.25 L 511.18 140.44 L 508.22 138.72" fill="#46acc3" fill-rule="evenodd" group-id="1,2,20" id="Fill-22" node-id="43" stroke="none" target-height="62.162582" target-width="75.67502" target-x="479.2051" target-y="134.81993"></path></g></g><g node-id="480"><g clip-path="url(#mask-6_39)" group-id="1,2,21" node-id="241"><path d="M 579.80 184.61 L 579.49 189.34 L 578.64 193.79 L 577.26 198.00 L 575.37 202.00 L 573.06 205.64 L 570.33 208.93 L 567.21 211.85 L 563.79 214.30 L 560.05 216.30 L 556.08 217.78 L 551.90 218.68 L 547.47 219.01 L 543.03 218.68 L 538.85 217.78 L 534.88 216.30 L 531.14 214.30 L 527.72 211.85 L 524.60 208.93 L 521.87 205.64 L 519.57 202.00 L 517.67 198.00 L 516.29 193.79 L 515.44 189.34 L 515.13 184.61 L 515.44 179.87 L 516.29 175.42 L 517.67 171.21 L 519.57 167.21 L 521.87 163.57 L 524.60 160.28 L 527.72 157.36 L 531.14 154.91 L 534.88 152.91 L 538.85 151.43 L 543.03 150.53 L 547.47 150.20 L 551.90 150.53 L 556.08 151.43 L 560.05 152.91 L 563.79 154.91 L 567.21 157.36 L 570.33 160.28 L 573.06 163.57 L 575.37 167.21 L 577.26 171.21 L 578.64 175.42 L 579.49 179.87 L 579.80 184.61" fill="#46acc3" fill-rule="evenodd" group-id="1,2,21" id="Fill-23" node-id="44" stroke="none" target-height="68.80368" target-width="64.670044" target-x="515.1322" target-y="150.20328"></path></g></g><g node-id="481"><g clip-path="url(#mask-6_40)" group-id="1,2,22" node-id="245"><path d="M 504.23 148.04 L 503.08 149.15 L 501.80 149.88 L 500.34 150.26 L 498.84 150.26 L 497.41 149.88 L 496.01 149.09 L 494.89 147.95 L 494.16 146.68 L 493.78 145.23 L 493.78 143.74 L 494.16 142.32 L 494.95 140.94 L 496.10 139.82 L 497.39 139.10 L 498.84 138.72 L 500.35 138.72 L 501.78 139.10 L 503.17 139.88 L 504.30 141.03 L 505.03 142.30 L 505.41 143.74 L 505.41 145.24 L 505.03 146.65 L 504.23 148.04" fill="#0d232b" fill-rule="evenodd" group-id="1,2,22" id="Fill-24" node-id="45" stroke="none" target-height="11.543442" target-width="11.632233" target-x="493.7775" target-y="138.71608"></path></g></g><g node-id="482"><g clip-path="url(#mask-6_41)" group-id="1,2,23" node-id="249"><path d="M 495.76 151.10 L 497.40 167.98 L 491.18 162.96 Z" fill="#deb052" fill-rule="evenodd" group-id="1,2,23" id="Fill-25" node-id="46" stroke="none" target-height="16.87819" target-width="6.2149963" target-x="491.18478" target-y="151.09795"></path></g></g><g node-id="483"><g clip-path="url(#mask-6_42)" group-id="1,2,24" node-id="253"><path d="M 488.10 150.84 L 488.19 153.00 L 488.64 158.05 L 489.08 160.98 L 489.71 163.80 L 490.60 166.37 L 491.64 168.09 L 495.76 151.10 L 494.48 150.72 L 493.19 150.45 L 491.50 150.28 L 489.78 150.37 L 488.10 150.84" fill="#fccb67" fill-rule="evenodd" group-id="1,2,24" id="Fill-26" node-id="47" stroke="none" target-height="17.81398" target-width="7.6631775" target-x="488.09686" target-y="150.27986"></path></g></g><g node-id="484"><g clip-path="url(#mask-6_43)" group-id="1,2,25" node-id="257"><path d="M 492.87 382.94 L 547.25 382.94 L 547.25 260.36 L 492.87 260.36 Z" fill="#5190a7" fill-rule="evenodd" group-id="1,2,25" id="Fill-27" node-id="48" stroke="none" target-height="122.5802" target-width="54.380035" target-x="492.86813" target-y="260.36087"></path></g></g><g node-id="485"><g clip-path="url(#mask-6_44)" group-id="1,2,26" node-id="261"><path d="M 529.44 288.56 L 531.39 288.56 L 531.39 271.22 L 529.44 271.22 L 529.44 288.56 Z M 508.47 288.56 L 510.41 288.56 L 510.41 271.22 L 508.47 271.22 L 508.47 288.56 Z" fill="#184657" fill-rule="evenodd" group-id="1,2,26" id="Fill-28" node-id="49" stroke="none" target-height="17.34613" target-width="22.917542" target-x="508.46967" target-y="271.21844"></path></g></g><g node-id="486"><g clip-path="url(#mask-6_45)" group-id="1,2,27" node-id="265"><path d="M 529.44 319.92 L 531.39 319.92 L 531.39 302.57 L 529.44 302.57 L 529.44 319.92 Z M 508.47 319.92 L 510.41 319.92 L 510.41 302.57 L 508.47 302.57 L 508.47 319.92 Z" fill="#184657" fill-rule="evenodd" group-id="1,2,27" id="Fill-29" node-id="50" stroke="none" target-height="17.346558" target-width="22.917542" target-x="508.46967" target-y="302.57007"></path></g></g><g node-id="487"><g clip-path="url(#mask-6_46)" group-id="1,2,28" node-id="269"><path d="M 529.44 351.27 L 531.39 351.27 L 531.39 333.92 L 529.44 333.92 L 529.44 351.27 Z M 508.47 351.27 L 510.41 351.27 L 510.41 333.92 L 508.47 333.92 L 508.47 351.27 Z" fill="#184657" fill-rule="evenodd" group-id="1,2,28" id="Fill-30" node-id="51" stroke="none" target-height="17.3461" target-width="22.917542" target-x="508.46967" target-y="333.9221"></path></g></g><g node-id="488"><g clip-path="url(#mask-6_47)" group-id="1,2,29" node-id="273"><path d="M 529.44 382.62 L 531.39 382.62 L 531.39 365.27 L 529.44 365.27 L 529.44 382.62 Z M 508.47 382.62 L 510.41 382.62 L 510.41 365.27 L 508.47 365.27 L 508.47 382.62 Z" fill="#184657" fill-rule="evenodd" group-id="1,2,29" id="Fill-31" node-id="52" stroke="none" target-height="17.346558" target-width="22.917542" target-x="508.46967" target-y="365.27368"></path></g></g><g node-id="489"><g clip-path="url(#mask-6_48)" group-id="1,2,30" node-id="277"><path d="M 376.34 372.15 L 426.06 372.15 L 426.06 201.77 L 376.34 201.77 Z" fill="#41b093" fill-rule="evenodd" group-id="1,2,30" id="Fill-32" node-id="53" stroke="none" target-height="170.37881" target-width="49.718933" target-x="376.33963" target-y="201.76889"></path></g></g><g node-id="490"><g clip-path="url(#mask-6_49)" group-id="1,2,31" node-id="281"><path d="M 385.27 212.69 L 415.44 212.69 L 415.44 210.76 L 385.27 210.76 L 385.27 212.69 Z M 385.27 233.51 L 415.44 233.51 L 415.44 231.58 L 385.27 231.58 L 385.27 233.51 Z M 385.27 254.32 L 415.44 254.32 L 415.44 252.39 L 385.27 252.39 L 385.27 254.32 Z M 385.27 275.14 L 415.44 275.14 L 415.44 273.21 L 385.27 273.21 L 385.27 275.14 Z M 385.27 295.95 L 415.44 295.95 L 415.44 294.02 L 385.27 294.02 L 385.27 295.95 Z" fill="#184657" fill-rule="evenodd" group-id="1,2,31" id="Fill-33" node-id="54" stroke="none" target-height="85.18942" target-width="30.168457" target-x="385.2734" target-y="210.76279"></path></g></g><g clip-path="url(#mask-6_50)" group-id="1,2,32" node-id="285"><path d="M 386.31 317.28 L 416.48 317.28 L 416.48 315.35 L 386.31 315.35 L 386.31 317.28 Z M 386.31 338.10 L 416.48 338.10 L 416.48 336.17 L 386.31 336.17 L 386.31 338.10 Z M 386.31 358.91 L 416.48 358.91 L 416.48 356.99 L 386.31 356.99 L 386.31 358.91 Z" fill="#184657" fill-rule="evenodd" group-id="1,2,32" id="Fill-34" node-id="55" stroke="none" target-height="43.5589" target-width="30.16803" target-x="386.3093" target-y="315.35394"></path></g></g><path d="M 177.95 383.37 L 188.72 383.37 L 188.72 85.42 L 177.95 85.42 Z" fill="#e6e5ce" fill-rule="evenodd" group-id="1" id="Fill-35" node-id="56" stroke="none" target-height="297.94873" target-width="10.769241" target-x="177.94872" target-y="85.42323"></path><g clip-path="url(#mask-8)" group-id="1,3,33" node-id="295"><path d="M 528.56 490.64 L 82.07 490.64 L 80.65 490.35 L 79.51 489.59 L 78.74 488.45 L 78.45 487.04 L 78.74 485.63 L 79.51 484.49 L 80.65 483.73 L 82.07 483.44 L 528.56 483.44 L 529.98 483.73 L 531.12 484.49 L 531.89 485.63 L 532.18 487.04 L 531.89 488.45 L 531.12 489.59 L 529.98 490.35 L 528.56 490.64" fill="#a7c7d3" fill-rule="evenodd" group-id="1,3,33,73" id="Fill-36" node-id="62" stroke="none" target-height="7.2039795" target-width="453.72388" target-x="78.45257" target-y="483.43777"></path></g><path d="M 320.62 88.86 L 320.62 59.22 L 320.40 56.87 L 319.81 54.70 L 318.85 52.70 L 317.56 50.89 L 316.02 49.35 L 314.20 48.07 L 312.19 47.11 L 310.01 46.52 L 307.64 46.30 L 305.28 46.52 L 303.10 47.11 L 301.09 48.07 L 299.27 49.35 L 297.73 50.89 L 296.44 52.70 L 295.48 54.70 L 294.89 56.87 L 294.67 59.22 L 294.67 88.86 L 291.10 89.11 L 287.74 89.79 L 284.56 90.89 L 281.55 92.40 L 278.81 94.24 L 276.31 96.43 L 274.11 98.91 L 272.26 101.64 L 270.75 104.64 L 269.64 107.81 L 268.96 111.15 L 268.71 114.70 L 346.58 114.70 L 346.33 111.15 L 345.65 107.81 L 344.54 104.64 L 343.03 101.64 L 341.18 98.91 L 338.98 96.43 L 336.48 94.24 L 333.74 92.40 L 330.73 90.89 L 327.55 89.79 L 324.19 89.11 L 320.62 88.86" fill="#0d232b" fill-rule="evenodd" group-id="1,3" id="Fill-902" node-id="63" stroke="none" target-height="68.39694" target-width="77.87213" target-x="268.7087" target-y="46.3036"></path><g clip-path="url(#mask-10_20)" group-id="1,3,34" node-id="301"><path d="M 306.01 48.91 L 309.28 48.91 L 309.28 10.26 L 306.01 10.26 Z" fill="#0d232b" fill-rule="evenodd" group-id="1,3,34" id="Fill-904" node-id="67" stroke="none" target-height="38.64986" target-width="3.2722473" target-x="306.00864" target-y="10.259689"></path></g><g clip-path="url(#mask-10_21)" group-id="1,3,35" node-id="305"><path d="M 500.92 142.65 L 500.75 143.06 L 500.33 143.23 L 499.92 143.06 L 499.75 142.65 L 499.92 142.24 L 500.33 142.07 L 500.75 142.24 L 500.92 142.65" fill="#ffffff" fill-rule="evenodd" group-id="1,3,35" id="Fill-906" node-id="68" stroke="none" target-height="1.1564941" target-width="1.1618042" target-x="499.75406" target-y="142.07082"></path></g><g clip-path="url(#mask-10_22)" group-id="1,3,36" node-id="309"><path d="M 277.81 180.07 L 278.30 175.48 L 278.08 175.48 L 276.21 179.41 L 270.50 186.79 L 267.76 188.86 L 271.27 188.43 L 277.81 188.43 L 277.81 180.07 Z M 290.49 194.11 L 284.45 194.11 L 284.45 204.77 L 277.81 204.77 L 277.81 194.11 L 261.17 194.11 L 261.17 190.07 L 278.57 166.24 L 284.45 166.24 L 284.45 188.43 L 290.49 188.43 L 290.49 194.11 Z" fill="#ffffff" fill-rule="evenodd" group-id="1,3,36" id="Fill-907" node-id="69" stroke="none" target-height="38.52643" target-width="29.315552" target-x="261.1712" target-y="166.23987"></path></g><g clip-path="url(#mask-10_23)" group-id="1,3,37" node-id="313"><path d="M 300.59 185.58 L 300.78 190.05 L 301.30 193.41 L 302.04 195.89 L 302.94 197.55 L 304.02 198.65 L 305.30 199.30 L 306.85 199.52 L 308.35 199.31 L 309.61 198.72 L 310.68 197.70 L 311.59 196.19 L 312.35 193.89 L 312.89 190.47 L 313.10 185.58 L 312.91 181.16 L 312.41 177.82 L 311.68 175.37 L 310.79 173.72 L 309.70 172.63 L 308.39 171.98 L 306.79 171.76 L 305.26 171.97 L 304.00 172.58 L 302.93 173.61 L 302.04 175.15 L 301.31 177.47 L 300.79 180.85 L 300.59 185.58 M 293.45 185.58 L 293.72 180.40 L 294.44 176.31 L 295.52 173.11 L 296.91 170.64 L 298.42 168.87 L 300.13 167.53 L 302.07 166.56 L 304.29 165.96 L 306.85 165.75 L 309.61 165.96 L 311.94 166.57 L 313.91 167.54 L 315.59 168.87 L 317.00 170.58 L 318.29 173.01 L 319.31 176.20 L 319.99 180.32 L 320.24 185.58 L 319.97 190.79 L 319.24 194.91 L 318.15 198.13 L 316.75 200.61 L 315.23 202.39 L 313.51 203.74 L 311.56 204.72 L 309.34 205.32 L 306.79 205.53 L 304.07 205.30 L 301.77 204.66 L 299.81 203.64 L 298.12 202.22 L 296.69 200.37 L 295.38 197.77 L 294.36 194.53 L 293.69 190.52 L 293.45 185.58" fill="#ffffff" fill-rule="evenodd" group-id="1,3,37" id="Fill-908" node-id="70" stroke="none" target-height="39.783096" target-width="26.790253" target-x="293.45078" target-y="165.74768"></path></g><g clip-path="url(#mask-10_24)" group-id="1,3,38" node-id="317"><path d="M 340.06 180.07 L 340.55 175.48 L 340.33 175.48 L 338.47 179.41 L 332.76 186.79 L 330.01 188.86 L 333.53 188.43 L 340.06 188.43 L 340.06 180.07 Z M 352.74 194.11 L 346.70 194.11 L 346.70 204.77 L 340.06 204.77 L 340.06 194.11 L 323.42 194.11 L 323.42 190.07 L 340.83 166.24 L 346.70 166.24 L 346.70 188.43 L 352.74 188.43 L 352.74 194.11 Z" fill="#ffffff" fill-rule="evenodd" group-id="1,3,38" id="Fill-909" node-id="71" stroke="none" target-height="38.52643" target-width="29.315521" target-x="323.42383" target-y="166.23987"></path></g><g clip-path="url(#mask-10_25)" group-id="1,3,39" node-id="321"><path d="M 401.27 327.67 L 400.94 334.18 L 400.06 340.21 L 398.66 345.80 L 396.75 350.99 L 394.28 356.00 L 391.38 360.66 L 388.01 364.99 L 384.18 369.00 L 380.00 372.64 L 375.42 375.98 L 370.44 379.03 L 365.00 381.79 L 359.45 384.13 L 353.56 386.19 L 347.31 387.95 L 340.69 389.41 L 331.82 390.79 L 322.50 391.64 L 312.69 391.93 L 302.89 391.64 L 293.57 390.79 L 284.70 389.41 L 278.08 387.95 L 271.83 386.19 L 265.94 384.13 L 260.39 381.79 L 254.95 379.03 L 249.97 375.98 L 245.39 372.64 L 241.21 369.00 L 237.38 364.99 L 234.01 360.66 L 231.11 356.00 L 228.64 350.99 L 226.73 345.79 L 225.32 340.21 L 224.45 334.18 L 224.12 327.67 L 224.35 320.43 L 225.06 313.13 L 226.25 305.77 L 227.93 298.51 L 230.14 291.39 L 232.88 284.41 L 235.29 279.32 L 238.02 274.42 L 241.06 269.69 L 244.44 265.12 L 248.12 260.82 L 252.14 256.78 L 256.54 252.99 L 261.32 249.44 L 266.32 246.31 L 271.73 243.51 L 277.59 241.04 L 283.94 238.91 L 290.31 237.30 L 297.19 236.10 L 304.64 235.34 L 312.69 235.06 L 321.30 235.35 L 329.16 236.11 L 336.34 237.31 L 342.90 238.91 L 349.48 241.06 L 355.47 243.53 L 360.94 246.33 L 365.93 249.44 L 370.70 253.00 L 375.04 256.79 L 378.97 260.83 L 382.52 265.12 L 385.75 269.69 L 388.65 274.42 L 391.20 279.32 L 393.44 284.41 L 395.94 291.39 L 397.94 298.50 L 399.43 305.77 L 400.47 313.13 L 401.08 320.42 L 401.27 327.67" fill="#f6f6ee" fill-rule="evenodd" group-id="1,3,39" id="Fill-910" node-id="72" stroke="none" target-height="156.871" target-width="177.14117" target-x="224.12424" target-y="235.05911"></path></g><g clip-path="url(#mask-10_26)" group-id="1,3,40" node-id="325"><path d="M 401.50 332.63 L 401.18 339.15 L 400.30 345.17 L 398.90 350.76 L 396.99 355.95 L 394.52 360.96 L 391.61 365.62 L 388.25 369.95 L 384.41 373.97 L 380.23 377.60 L 375.66 380.94 L 370.67 383.99 L 365.24 386.75 L 359.68 389.09 L 353.79 391.15 L 347.55 392.91 L 340.93 394.37 L 332.05 395.76 L 322.73 396.60 L 312.93 396.89 L 303.13 396.60 L 293.81 395.76 L 284.94 394.37 L 278.32 392.91 L 272.07 391.15 L 266.18 389.09 L 260.62 386.75 L 255.19 383.99 L 250.20 380.94 L 245.63 377.60 L 241.45 373.97 L 237.61 369.95 L 234.25 365.62 L 231.34 360.96 L 228.88 355.95 L 226.97 350.76 L 225.56 345.17 L 224.68 339.15 L 224.36 332.63 L 224.59 325.39 L 225.29 318.09 L 226.48 310.73 L 228.17 303.47 L 230.38 296.36 L 233.12 289.37 L 235.53 284.28 L 238.25 279.38 L 241.30 274.65 L 244.68 270.08 L 248.35 265.78 L 252.38 261.74 L 256.78 257.95 L 261.56 254.41 L 266.56 251.28 L 271.97 248.47 L 277.83 246.00 L 284.18 243.87 L 290.55 242.26 L 297.43 241.06 L 304.88 240.30 L 312.93 240.02 L 321.53 240.31 L 329.40 241.07 L 336.58 242.27 L 343.14 243.87 L 349.71 246.02 L 355.71 248.50 L 361.18 251.29 L 366.16 254.41 L 370.94 257.96 L 375.28 261.75 L 379.21 265.79 L 382.76 270.08 L 385.99 274.65 L 388.88 279.38 L 391.44 284.28 L 393.67 289.37 L 396.18 296.35 L 398.18 303.46 L 399.67 310.73 L 400.71 318.09 L 401.31 325.38 L 401.50 332.63" fill="#e6e5ce" fill-rule="evenodd" group-id="1,3,40" id="Fill-911" node-id="73" stroke="none" target-height="156.87102" target-width="177.1412" target-x="224.36151" target-y="240.02083"></path></g><g clip-path="url(#mask-10_27)" group-id="1,3,41" node-id="329"><path d="M 224.36 332.63 L 224.68 339.15 L 225.56 345.17 L 226.97 350.76 L 228.88 355.95 L 231.34 360.96 L 234.25 365.62 L 237.61 369.95 L 241.45 373.97 L 245.63 377.60 L 250.20 380.94 L 255.19 383.99 L 260.62 386.75 L 266.18 389.09 L 272.07 391.15 L 278.32 392.91 L 284.94 394.37 L 293.81 395.76 L 303.13 396.60 L 312.93 396.89 L 322.73 396.60 L 332.05 395.76 L 340.93 394.37 L 347.55 392.91 L 353.79 391.15 L 359.68 389.09 L 365.24 386.75 L 370.67 383.99 L 375.66 380.94 L 380.23 377.60 L 384.41 373.97 L 388.25 369.95 L 391.61 365.62 L 394.52 360.96 L 396.99 355.95 L 398.90 350.76 L 400.30 345.17 L 401.18 339.15 L 401.50 332.63 L 401.42 327.81 L 401.15 322.93 L 224.78 322.93 L 224.47 327.81 L 224.36 332.63" fill="#d5d4b9" fill-rule="evenodd" group-id="1,3,41" id="Fill-912" node-id="74" stroke="none" target-height="73.964294" target-width="177.14119" target-x="224.36168" target-y="322.92755"></path></g><g clip-path="url(#mask-10_28)" group-id="1,3,42" node-id="333"><path d="M 242.35 330.32 L 242.61 335.39 L 243.30 340.08 L 244.39 344.42 L 245.87 348.45 L 247.73 352.21 L 250.00 355.80 L 252.58 359.13 L 255.50 362.22 L 258.76 365.08 L 262.40 367.71 L 267.16 370.54 L 272.35 373.02 L 278.00 375.16 L 284.15 376.93 L 290.33 378.24 L 296.81 379.20 L 303.63 379.79 L 310.80 379.98 L 317.96 379.79 L 324.78 379.20 L 331.26 378.24 L 337.44 376.93 L 343.59 375.16 L 349.24 373.02 L 354.43 370.54 L 359.19 367.71 L 362.83 365.08 L 366.09 362.22 L 369.01 359.13 L 371.60 355.80 L 373.86 352.21 L 375.72 348.45 L 377.20 344.42 L 378.29 340.08 L 378.98 335.39 L 379.24 330.32 L 378.97 322.82 L 242.67 322.82 L 242.43 326.59 L 242.35 330.32" fill="#bebc97" fill-rule="evenodd" group-id="1,3,42" id="Fill-913" node-id="75" stroke="none" target-height="57.158325" target-width="136.89174" target-x="242.34987" target-y="322.82446"></path></g><g clip-path="url(#mask-10_29)" group-id="1,3,43" node-id="337"><path d="M 304.36 466.06 L 315.74 466.06 L 315.74 390.07 L 304.36 390.07 Z" fill="#639bb0" fill-rule="evenodd" group-id="1,3,43" id="Fill-914" node-id="76" stroke="none" target-height="75.993164" target-width="11.3802185" target-x="304.35638" target-y="390.07086"></path></g><g clip-path="url(#mask-10_30)" group-id="1,3,44" node-id="341"><path d="M 304.36 399.88 L 315.74 399.88 L 315.74 390.07 L 304.36 390.07 Z" fill="#d5d4b9" fill-rule="evenodd" group-id="1,3,44" id="Fill-915" node-id="77" stroke="none" target-height="9.808594" target-width="11.3802185" target-x="304.35638" target-y="390.07086"></path></g><g clip-path="url(#mask-10_31)" group-id="1,3,45" node-id="345"><path d="M 350.59 477.51 L 346.32 477.51 L 346.32 474.85 L 346.08 473.17 L 345.48 471.73 L 344.50 470.48 L 343.24 469.50 L 341.79 468.90 L 340.10 468.66 L 279.99 468.66 L 278.31 468.90 L 276.86 469.50 L 275.60 470.48 L 274.62 471.73 L 274.01 473.17 L 273.77 474.85 L 273.77 477.51 L 269.50 477.51 L 269.50 474.85 L 269.68 472.95 L 270.16 471.21 L 270.94 469.59 L 271.98 468.12 L 273.23 466.88 L 274.70 465.84 L 276.33 465.07 L 278.08 464.59 L 279.99 464.41 L 340.10 464.41 L 342.01 464.59 L 343.76 465.07 L 345.39 465.84 L 346.86 466.88 L 348.11 468.12 L 349.15 469.59 L 349.93 471.21 L 350.41 472.95 L 350.59 474.85 L 350.59 477.51 Z" fill="#609aaf" fill-rule="evenodd" group-id="1,3,45" id="Fill-916" node-id="78" stroke="none" target-height="13.098022" target-width="81.084076" target-x="269.50464" target-y="464.41254"></path></g><g clip-path="url(#mask-10_32)" group-id="1,3,46" node-id="349"><path d="M 290.63 477.15 L 290.37 478.98 L 289.71 480.54 L 288.65 481.91 L 287.28 482.97 L 285.70 483.62 L 283.86 483.88 L 282.03 483.62 L 280.45 482.97 L 279.08 481.91 L 278.02 480.54 L 277.36 478.98 L 277.10 477.15 L 277.36 475.32 L 278.02 473.75 L 279.08 472.39 L 280.45 471.33 L 282.03 470.67 L 283.86 470.41 L 285.70 470.67 L 287.28 471.33 L 288.65 472.39 L 289.71 473.75 L 290.37 475.32 L 290.63 477.15" fill="#035e80" fill-rule="evenodd" group-id="1,3,46" id="Fill-917" node-id="79" stroke="none" target-height="13.469543" target-width="13.531006" target-x="277.09885" target-y="470.41333"></path></g><g clip-path="url(#mask-10_33)" group-id="1,3,47" node-id="353"><path d="M 287.41 477.15 L 287.13 478.53 L 286.37 479.65 L 285.26 480.40 L 283.86 480.68 L 282.47 480.40 L 281.35 479.65 L 280.60 478.53 L 280.31 477.15 L 280.60 475.76 L 281.35 474.65 L 282.47 473.90 L 283.86 473.61 L 285.26 473.90 L 286.37 474.65 L 287.13 475.76 L 287.41 477.15" fill="#184657" fill-rule="evenodd" group-id="1,3,47" id="Fill-918" node-id="80" stroke="none" target-height="7.067871" target-width="7.1003113" target-x="280.31427" target-y="473.61438"></path></g><g clip-path="url(#mask-10_34)" group-id="1,3,48" node-id="357"><path d="M 343.30 477.15 L 343.04 478.98 L 342.38 480.54 L 341.32 481.91 L 339.94 482.97 L 338.37 483.62 L 336.53 483.88 L 334.69 483.62 L 333.12 482.97 L 331.75 481.91 L 330.68 480.54 L 330.03 478.98 L 329.77 477.15 L 330.03 475.32 L 330.68 473.75 L 331.75 472.39 L 333.12 471.33 L 334.69 470.67 L 336.53 470.41 L 338.37 470.67 L 339.94 471.33 L 341.32 472.39 L 342.38 473.75 L 343.04 475.32 L 343.30 477.15" fill="#035e80" fill-rule="evenodd" group-id="1,3,48" id="Fill-919" node-id="81" stroke="none" target-height="13.469543" target-width="13.531006" target-x="329.76605" target-y="470.41333"></path></g><g clip-path="url(#mask-10_35)" group-id="1,3,49" node-id="361"><path d="M 340.08 477.15 L 339.80 478.53 L 339.04 479.65 L 337.92 480.40 L 336.53 480.68 L 335.14 480.40 L 334.02 479.65 L 333.26 478.53 L 332.98 477.15 L 333.26 475.76 L 334.02 474.65 L 335.14 473.90 L 336.53 473.61 L 337.92 473.90 L 339.04 474.65 L 339.80 475.76 L 340.08 477.15" fill="#184657" fill-rule="evenodd" group-id="1,3,49" id="Fill-920" node-id="82" stroke="none" target-height="7.067871" target-width="7.1007385" target-x="332.98105" target-y="473.61438"></path></g><g clip-path="url(#mask-10_36)" group-id="1,3,50" node-id="367"><path d="M 330.38 474.35 L 342.68 474.35 L 341.65 472.76 L 340.23 471.51 L 338.51 470.71 L 336.53 470.41 L 334.55 470.71 L 332.83 471.51 L 331.41 472.76 L 330.38 474.35" fill="#cbc7ff" fill-rule="evenodd" group-id="1,3,50,74" id="Fill-921" node-id="85" stroke="none" target-height="3.9369507" target-width="12.297455" target-x="330.38278" target-y="470.41367"></path><path d="M 277.72 474.35 L 290.01 474.35 L 288.99 472.76 L 287.56 471.51 L 285.84 470.71 L 283.86 470.41 L 281.89 470.71 L 280.17 471.51 L 278.74 472.76 L 277.72 474.35" fill="#cbc7ff" fill-rule="evenodd" group-id="1,3,50,74" id="Fill-922" node-id="86" stroke="none" target-height="3.9369507" target-width="12.297424" target-x="277.7157" target-y="470.41367"></path><path d="M 330.38 474.35 L 342.68 474.35 L 341.65 472.76 L 340.23 471.51 L 338.51 470.71 L 336.53 470.41 L 334.55 470.71 L 332.83 471.51 L 331.41 472.76 L 330.38 474.35" fill="#41b093" fill-rule="evenodd" group-id="1,3,50,74" id="Fill-923" node-id="87" stroke="none" target-height="3.9369507" target-width="12.297455" target-x="330.38278" target-y="470.41367"></path><path d="M 277.72 474.35 L 290.01 474.35 L 288.99 472.76 L 287.56 471.51 L 285.84 470.71 L 283.86 470.41 L 281.89 470.71 L 280.17 471.51 L 278.74 472.76 L 277.72 474.35" fill="#41b093" fill-rule="evenodd" group-id="1,3,50,74" id="Fill-924" node-id="88" stroke="none" target-height="3.9369507" target-width="12.297424" target-x="277.7157" target-y="470.41367"></path></g><g clip-path="url(#mask-10_37)" group-id="1,3,51" node-id="375"><path d="M 315.03 437.29 L 305.07 437.29 L 303.60 436.99 L 302.42 436.20 L 301.62 435.03 L 301.32 433.57 L 301.32 422.24 L 301.62 420.77 L 302.42 419.60 L 303.60 418.81 L 305.07 418.51 L 315.03 418.51 L 316.49 418.81 L 317.67 419.60 L 318.47 420.77 L 318.77 422.24 L 318.77 433.57 L 318.47 435.03 L 317.67 436.20 L 316.49 436.99 L 315.03 437.29" fill="#639bb0" fill-rule="evenodd" group-id="1,3,51" id="Fill-925" node-id="89" stroke="none" target-height="18.782776" target-width="17.444855" target-x="301.32425" target-y="418.5091"></path></g><g clip-path="url(#mask-10_38)" group-id="1,3,52" node-id="379"><path d="M 341.66 373.50 L 274.45 373.50 L 271.27 373.35 L 268.35 372.84 L 266.51 372.23 L 264.85 371.36 L 263.34 370.23 L 262.07 368.85 L 260.96 367.07 L 260.05 364.79 L 259.47 362.40 L 259.14 359.38 L 259.10 355.61 L 259.41 352.58 L 260.02 349.55 L 260.94 346.49 L 262.71 342.06 L 264.81 337.90 L 267.12 333.98 L 269.30 330.69 L 273.02 325.73 L 274.57 323.89 L 343.11 323.89 L 344.48 325.99 L 347.77 331.46 L 349.71 334.98 L 351.74 339.03 L 353.61 343.22 L 355.17 347.44 L 356.32 351.66 L 356.83 355.43 L 356.72 359.48 L 356.11 362.82 L 355.07 365.56 L 353.53 368.06 L 351.69 370.03 L 349.54 371.54 L 347.12 372.62 L 344.51 373.28 L 341.66 373.50" fill="#0d232b" fill-rule="evenodd" group-id="1,3,52" id="Fill-926" node-id="90" stroke="none" target-height="49.61371" target-width="97.725525" target-x="259.10434" target-y="323.88855"></path></g><path d="M 193.59 473.58 L 183.16 473.58 L 211.62 318.14 L 222.05 318.14 Z" fill="#d6b88d" fill-rule="evenodd" group-id="1,4" id="Fill-1057" node-id="92" stroke="none" target-height="155.43942" target-width="38.885956" target-x="183.16246" target-y="318.13763"></path><path d="M 207.38 341.29 L 217.81 341.29 L 222.05 318.14 L 211.62 318.14 Z" fill="#b89f7a" fill-rule="evenodd" group-id="1,4" id="Fill-1059" node-id="93" stroke="none" target-height="23.150574" target-width="14.670288" target-x="207.3782" target-y="318.13763"></path><path d="M 462.69 473.58 L 473.13 473.58 L 444.67 318.14 L 434.24 318.14 Z" fill="#d6b88d" fill-rule="evenodd" group-id="1,4" id="Fill-1061" node-id="94" stroke="none" target-height="155.43942" target-width="38.885956" target-x="434.23932" target-y="318.13763"></path><path d="M 448.91 341.29 L 438.48 341.29 L 434.24 318.14 L 444.67 318.14 Z" fill="#b89f7a" fill-rule="evenodd" group-id="1,4" id="Fill-1063" node-id="95" stroke="none" target-height="23.150574" target-width="14.670288" target-x="434.23923" target-y="318.13763"></path><g clip-path="url(#mask-12_19)" group-id="1,4,53" node-id="390"><path d="M 176.41 318.73 L 476.20 318.73 L 476.20 307.39 L 176.41 307.39 Z" fill="#d6b88d" fill-rule="evenodd" group-id="1,4,53" id="Fill-1065" node-id="99" stroke="none" target-height="11.339447" target-width="299.79828" target-x="176.40553" target-y="307.389"></path></g><g clip-path="url(#mask-12_20)" group-id="1,4,54" node-id="394"><path d="M 299.62 269.15 L 293.90 269.67 L 287.40 270.60 L 280.79 271.85 L 273.95 273.47 L 267.20 275.41 L 260.75 277.64 L 254.61 280.24 L 249.28 283.02 L 245.96 285.16 L 243.23 287.32 L 241.01 289.51 L 239.16 291.98 L 237.99 294.46 L 237.42 296.99 L 237.37 300.27 L 237.77 302.58 L 238.49 304.18 L 239.63 305.51 L 241.07 306.46 L 242.87 307.07 L 245.88 307.48 L 249.54 307.54 L 257.44 307.52 L 265.75 307.66 L 278.11 307.67 L 292.04 307.58 L 305.06 307.45 L 314.69 307.33 L 318.45 307.28 L 299.62 269.15 Z" fill="#e85f5b" fill-rule="evenodd" group-id="1,4,54" id="Fill-1067" node-id="100" stroke="none" target-height="38.51828" target-width="81.08267" target-x="237.36914" target-y="269.14813"></path></g><g clip-path="url(#mask-12_21)" group-id="1,4,55" node-id="398"><path d="M 331.31 268.62 L 337.12 269.15 L 344.13 270.13 L 351.36 271.44 L 359.07 273.15 L 366.74 275.18 L 374.16 277.52 L 381.28 280.23 L 387.45 283.12 L 391.33 285.33 L 394.47 287.55 L 396.98 289.77 L 398.63 291.69 L 399.78 293.57 L 400.49 295.45 L 400.79 297.35 L 400.64 300.06 L 400.06 302.15 L 399.13 303.74 L 397.81 305.06 L 396.14 306.11 L 394.05 306.88 L 390.60 307.54 L 386.32 307.82 L 376.73 307.64 L 368.76 307.46 L 357.21 307.36 L 344.34 307.30 L 332.38 307.28 L 323.57 307.28 L 320.13 307.28 L 331.31 268.62 Z" fill="#e85f5b" fill-rule="evenodd" group-id="1,4,55" id="Fill-1068" node-id="101" stroke="none" target-height="39.208008" target-width="80.65985" target-x="320.13144" target-y="268.61597"></path></g><g clip-path="url(#mask-12_22)" group-id="1,4,56" node-id="402"><path d="M 242.60 304.70 L 241.29 303.48 L 240.34 302.18 L 239.71 300.76 L 239.38 299.25 L 239.35 297.71 L 239.62 296.13 L 240.17 294.62 L 241.01 293.17 L 242.16 291.76 L 244.00 290.22 L 246.27 288.93 L 249.02 287.89 L 251.90 287.24 L 254.96 286.95 L 258.23 287.04 L 266.65 288.18 L 277.07 290.01 L 287.90 292.13 L 297.58 294.16 L 304.54 295.66 L 307.21 296.26 L 306.77 306.46 L 303.37 306.53 L 294.49 306.70 L 282.18 306.92 L 268.47 307.12 L 258.24 307.40 L 253.40 307.39 L 249.24 307.05 L 246.59 306.54 L 244.40 305.75 L 242.60 304.70" fill="#ffd6cb" fill-rule="evenodd" group-id="1,4,56" id="Fill-1069" node-id="102" stroke="none" target-height="20.443481" target-width="67.86212" target-x="239.35153" target-y="286.9529"></path></g><g clip-path="url(#mask-12_23)" group-id="1,4,57" node-id="406"><path d="M 293.69 340.74 L 296.47 341.18 L 299.04 341.88 L 301.43 342.84 L 303.63 344.13 L 305.52 345.74 L 307.12 347.70 L 308.30 349.92 L 309.10 352.61 L 309.47 355.88 L 309.33 359.17 L 308.63 363.15 L 307.22 367.94 L 305.56 372.02 L 302.75 377.94 L 295.36 391.84 L 286.23 407.89 L 276.52 424.34 L 267.39 439.45 L 260.02 451.47 L 255.56 458.66 L 255.09 459.97 L 255.21 461.36 L 258.56 471.99 L 228.89 471.99 L 229.63 469.55 L 231.64 463.79 L 233.01 460.42 L 234.59 457.09 L 237.51 451.38 L 243.15 440.28 L 250.54 425.70 L 258.74 409.53 L 266.78 393.66 L 273.71 379.97 L 278.56 370.38 L 280.40 366.76 L 279.19 365.91 L 276.42 363.86 L 273.39 361.37 L 272.10 360.11 L 271.38 359.19 L 271.09 358.21 L 271.05 356.14 L 271.42 353.82 L 272.33 350.99 L 273.21 349.16 L 274.42 347.34 L 275.99 345.53 L 277.80 343.99 L 280.06 342.65 L 282.85 341.53 L 285.76 340.84 L 289.33 340.55 L 293.69 340.74" fill="#ffd6cb" fill-rule="evenodd" group-id="1,4,57" id="Fill-1070" node-id="103" stroke="none" target-height="131.44034" target-width="80.57756" target-x="228.89357" target-y="340.55054"></path></g><g clip-path="url(#mask-12_24)" group-id="1,4,58" node-id="410"><path d="M 246.22 462.29 L 243.45 462.75 L 240.96 463.50 L 238.64 464.44 L 236.92 465.30 L 235.83 465.72 L 234.70 465.87 L 233.56 465.74 L 232.47 465.34 L 231.28 464.73 L 229.53 469.86 L 228.89 471.99 L 258.56 471.99 L 256.23 464.60 L 256.01 464.42 L 254.82 463.75 L 253.50 463.20 L 251.45 462.61 L 249.15 462.27 L 246.22 462.29" fill="#e85f5b" fill-rule="evenodd" group-id="1,4,58" id="Fill-1072" node-id="104" stroke="none" target-height="9.716095" target-width="29.667572" target-x="228.8934" target-y="462.27435"></path></g><g clip-path="url(#mask-12_25)" group-id="1,4,59" node-id="414"><path d="M 256.56 474.06 L 230.96 474.06 L 230.17 473.90 L 229.54 473.47 L 229.11 472.85 L 228.95 472.06 L 228.95 471.92 L 258.56 471.92 L 258.56 472.06 L 258.40 472.85 L 257.97 473.47 L 257.34 473.90 L 256.56 474.06" fill="#035e80" fill-rule="evenodd" group-id="1,4,59" id="Fill-1073" node-id="105" stroke="none" target-height="2.138733" target-width="29.608536" target-x="228.95268" target-y="471.92133"></path></g><g clip-path="url(#mask-12_26)" group-id="1,4,60" node-id="418"><path d="M 327.16 340.74 L 324.38 341.18 L 321.81 341.88 L 319.42 342.84 L 317.21 344.13 L 315.33 345.74 L 313.73 347.70 L 312.55 349.92 L 311.75 352.61 L 311.38 355.88 L 311.52 359.17 L 312.22 363.15 L 313.63 367.94 L 315.28 372.02 L 318.10 377.94 L 325.49 391.84 L 334.62 407.89 L 344.33 424.34 L 353.45 439.45 L 360.83 451.47 L 365.29 458.66 L 365.76 459.97 L 365.64 461.36 L 362.29 471.99 L 391.95 471.99 L 391.22 469.55 L 389.21 463.79 L 387.84 460.42 L 386.26 457.09 L 383.34 451.38 L 377.70 440.28 L 370.31 425.70 L 362.11 409.53 L 354.07 393.66 L 347.14 379.97 L 342.28 370.38 L 340.45 366.76 L 341.66 365.91 L 344.43 363.86 L 347.46 361.37 L 348.75 360.11 L 349.47 359.19 L 349.76 358.21 L 349.79 356.14 L 349.43 353.82 L 348.52 350.99 L 347.64 349.16 L 346.43 347.34 L 344.86 345.53 L 343.05 343.99 L 340.79 342.65 L 338.00 341.53 L 335.08 340.84 L 331.51 340.55 L 327.16 340.74" fill="#ffd6cb" fill-rule="evenodd" group-id="1,4,60" id="Fill-1074" node-id="106" stroke="none" target-height="131.44034" target-width="80.577576" target-x="311.37732" target-y="340.55054"></path></g><g clip-path="url(#mask-12_27)" group-id="1,4,61" node-id="422"><path d="M 374.63 462.29 L 377.39 462.75 L 379.89 463.50 L 382.20 464.44 L 383.93 465.30 L 385.02 465.72 L 386.15 465.87 L 387.29 465.74 L 388.38 465.34 L 389.57 464.73 L 391.32 469.86 L 391.96 471.99 L 362.29 471.99 L 364.61 464.60 L 364.84 464.42 L 366.03 463.75 L 367.35 463.20 L 369.40 462.61 L 371.70 462.27 L 374.63 462.29" fill="#e85f5b" fill-rule="evenodd" group-id="1,4,61" id="Fill-1076" node-id="107" stroke="none" target-height="9.716095" target-width="29.667542" target-x="362.2875" target-y="462.27435"></path></g><g clip-path="url(#mask-12_28)" group-id="1,4,62" node-id="426"><path d="M 364.29 474.06 L 389.89 474.06 L 390.68 473.90 L 391.31 473.47 L 391.74 472.85 L 391.90 472.06 L 391.90 471.92 L 362.29 471.92 L 362.29 472.06 L 362.45 472.85 L 362.87 473.47 L 363.51 473.90 L 364.29 474.06" fill="#035e80" fill-rule="evenodd" group-id="1,4,62" id="Fill-1077" node-id="108" stroke="none" target-height="2.138733" target-width="29.608551" target-x="362.28723" target-y="471.92133"></path></g><g clip-path="url(#mask-12_29)" group-id="1,4,63" node-id="430"><path d="M 396.15 304.70 L 397.46 303.48 L 398.41 302.18 L 399.04 300.76 L 399.37 299.25 L 399.40 297.71 L 399.13 296.13 L 398.57 294.62 L 397.74 293.17 L 396.59 291.76 L 394.75 290.22 L 392.48 288.93 L 389.73 287.89 L 386.85 287.24 L 383.79 286.95 L 380.52 287.04 L 372.10 288.18 L 361.68 290.01 L 350.85 292.13 L 341.17 294.16 L 334.21 295.66 L 331.54 296.26 L 331.98 306.46 L 335.38 306.53 L 344.26 306.70 L 356.57 306.92 L 370.28 307.12 L 380.51 307.40 L 385.35 307.39 L 389.51 307.05 L 392.16 306.54 L 394.35 305.75 L 396.15 304.70" fill="#ffd6cb" fill-rule="evenodd" group-id="1,4,63" id="Fill-1078" node-id="109" stroke="none" target-height="20.443481" target-width="67.86255" target-x="331.53574" target-y="286.9529"></path></g><g clip-path="url(#mask-12_30)" group-id="1,4,64" node-id="434"><path d="M 296.77 273.05 L 292.69 276.99 L 290.78 278.98 L 289.11 281.05 L 287.76 283.30 L 286.80 285.82 L 285.94 289.84 L 285.83 291.73 L 285.91 292.21 L 284.77 292.84 L 283.72 293.66 L 282.43 295.12 L 281.39 296.96 L 280.57 299.65 L 280.22 302.44 L 280.19 304.37 L 280.37 306.05 L 280.60 307.00 L 280.93 307.81 L 358.19 307.28 L 358.56 306.11 L 358.72 304.85 L 358.58 302.89 L 358.00 300.79 L 356.58 298.06 L 354.69 295.63 L 353.06 294.19 L 351.40 293.19 L 350.25 292.76 L 349.11 292.56 L 347.54 291.73 L 346.09 290.80 L 344.44 289.49 L 343.04 287.92 L 342.17 286.18 L 341.56 284.65 L 340.44 282.50 L 337.67 278.04 L 335.11 274.28 L 333.98 272.70 L 296.77 273.05 Z" fill="#353535" fill-opacity="0.29366" fill-rule="evenodd" group-id="1,4,64" id="Fill-1079" node-id="110" stroke="none" target-height="35.11789" target-width="78.52582" target-x="280.19226" target-y="272.69525"></path></g><g clip-path="url(#mask-12_31)" group-id="1,4,65" node-id="438"><path d="M 347.44 338.06 L 345.70 336.92 L 344.40 335.70 L 343.46 334.42 L 342.86 332.97 L 342.56 331.15 L 342.63 328.86 L 343.32 325.18 L 344.99 319.79 L 346.14 315.69 L 346.54 312.61 L 346.39 309.76 L 345.79 307.49 L 344.81 305.42 L 343.57 303.56 L 340.71 299.93 L 339.01 297.59 L 337.76 295.41 L 337.18 293.90 L 336.91 292.36 L 336.95 290.73 L 337.32 289.15 L 338.14 287.31 L 339.53 285.16 L 340.51 283.42 L 341.08 281.59 L 341.24 279.62 L 341.04 277.63 L 340.53 275.77 L 339.70 273.99 L 338.59 272.39 L 337.29 271.15 L 335.80 270.21 L 334.78 269.44 L 334.11 268.33 L 333.19 265.55 L 332.64 264.12 L 331.81 262.81 L 330.45 261.60 L 328.62 260.64 L 326.56 260.04 L 324.31 259.79 L 322.05 259.93 L 319.92 260.49 L 318.14 259.86 L 316.25 259.40 L 312.72 259.05 L 309.37 259.29 L 306.16 260.11 L 303.12 261.46 L 300.43 263.25 L 298.03 265.52 L 296.05 268.15 L 294.58 271.12 L 293.59 274.48 L 293.25 277.85 L 293.47 281.05 L 294.24 284.13 L 292.94 286.74 L 292.16 288.76 L 291.51 291.07 L 291.27 293.41 L 291.61 295.46 L 292.35 297.47 L 292.80 299.08 L 292.92 300.69 L 292.57 302.57 L 291.73 304.58 L 289.98 307.57 L 288.76 309.70 L 288.05 311.43 L 287.74 312.86 L 287.79 315.05 L 288.42 317.30 L 290.81 322.69 L 291.55 324.88 L 291.87 326.81 L 291.81 328.54 L 291.18 331.05 L 289.99 333.30 L 288.40 335.33 L 286.58 337.18 L 285.42 338.50 L 284.46 340.08 L 283.69 341.96 L 283.21 343.94 L 283.05 345.93 L 283.21 347.95 L 283.75 349.87 L 284.69 351.59 L 286.09 353.13 L 288.38 355.18 L 290.01 357.06 L 290.77 358.43 L 291.17 359.99 L 291.21 361.81 L 290.88 363.63 L 290.03 366.01 L 288.49 369.12 L 287.45 371.49 L 286.94 373.62 L 286.89 375.56 L 287.22 377.48 L 287.86 379.17 L 288.80 380.68 L 290.00 382.00 L 291.34 383.06 L 292.83 383.87 L 294.43 384.42 L 296.00 384.63 L 297.57 384.54 L 302.72 383.69 L 305.47 383.43 L 307.95 383.46 L 309.54 383.71 L 310.79 384.19 L 311.77 384.88 L 312.45 385.81 L 312.78 387.13 L 312.70 389.00 L 312.64 390.93 L 313.04 392.75 L 313.91 394.51 L 315.13 396.10 L 316.63 397.50 L 318.45 398.72 L 320.43 399.66 L 322.49 400.28 L 324.64 400.57 L 326.80 400.49 L 328.85 399.98 L 330.82 399.02 L 332.55 397.69 L 333.80 396.34 L 334.66 394.96 L 335.45 392.64 L 335.67 390.17 L 335.48 387.62 L 335.00 384.94 L 333.73 379.56 L 333.50 377.80 L 333.57 376.28 L 333.93 374.94 L 334.94 373.05 L 336.57 371.11 L 341.16 367.00 L 347.22 361.52 L 349.24 359.21 L 350.73 356.92 L 351.76 354.64 L 352.44 352.23 L 352.75 349.94 L 352.71 347.74 L 352.37 345.56 L 351.79 343.61 L 350.97 341.86 L 349.91 340.26 L 348.73 339.01 L 347.44 338.06" fill="#434242" fill-rule="evenodd" group-id="1,4,65" id="Fill-1080" node-id="111" stroke="none" target-height="141.52798" target-width="69.69461" target-x="283.05057" target-y="259.04654"></path></g><g clip-path="url(#mask-12_32)" group-id="1,4,66" node-id="442"><path d="M 306.62 318.09 L 306.08 319.80 L 305.99 321.17 L 306.28 322.29 L 307.21 323.87 L 308.65 325.41 L 310.25 326.95 L 311.89 328.76 L 312.82 330.09 L 313.57 331.69 L 314.13 333.61 L 314.32 335.58 L 314.20 337.15 L 313.83 338.40 L 312.88 340.13 L 311.65 341.64 L 309.03 344.68 L 308.03 346.49 L 307.40 348.89 L 307.37 350.58 L 307.60 351.91 L 308.05 352.95 L 309.03 354.39 L 310.18 355.72 L 311.25 357.10 L 312.10 358.81 L 312.40 360.05 L 312.44 361.70 L 312.14 363.87 L 311.21 366.71 L 310.00 368.83 L 306.94 372.53 L 305.41 374.46 L 303.92 376.89 L 303.14 378.66 L 302.45 380.93 L 301.89 383.81 L 297.57 384.54 L 296.00 384.63 L 294.43 384.42 L 292.83 383.87 L 291.34 383.06 L 290.00 382.00 L 288.80 380.68 L 287.86 379.17 L 287.22 377.48 L 286.89 375.56 L 286.94 373.62 L 287.45 371.49 L 288.49 369.12 L 290.03 366.01 L 290.88 363.63 L 291.21 361.81 L 291.17 359.99 L 290.77 358.43 L 290.01 357.06 L 288.38 355.18 L 286.09 353.13 L 284.69 351.59 L 283.75 349.87 L 283.21 347.95 L 283.05 345.93 L 283.21 343.94 L 283.69 341.96 L 284.46 340.08 L 285.42 338.50 L 286.58 337.18 L 288.40 335.33 L 289.99 333.30 L 291.18 331.05 L 291.81 328.54 L 291.87 326.81 L 291.55 324.88 L 290.81 322.69 L 288.42 317.30 L 287.79 315.05 L 287.74 312.86 L 288.05 311.43 L 288.76 309.70 L 289.98 307.57 L 291.76 304.60 L 292.66 302.65 L 293.09 300.85 L 293.05 299.33 L 292.66 297.79 L 291.95 295.79 L 291.60 294.10 L 291.64 292.17 L 291.98 290.22 L 292.50 288.36 L 293.66 285.36 L 294.24 284.13 L 296.10 285.44 L 300.40 288.72 L 302.85 290.79 L 305.18 292.98 L 307.21 295.27 L 308.48 297.25 L 309.17 299.07 L 309.63 301.12 L 309.82 303.45 L 309.67 307.01 L 309.04 310.80 L 308.01 314.54 L 306.62 318.09 Z" fill="#353535" fill-rule="evenodd" group-id="1,4,66" id="Fill-1081" node-id="112" stroke="none" target-height="100.49759" target-width="31.267883" target-x="283.05048" target-y="284.1334"></path></g><g clip-path="url(#mask-12_33)" group-id="1,4,67" node-id="446"><path d="M 468.28 302.47 L 398.86 302.47 L 405.45 262.34 L 406.07 260.62 L 407.19 259.28 L 408.70 258.40 L 410.50 258.07 L 471.50 258.07 L 472.99 258.41 L 474.14 259.29 L 474.82 260.55 L 474.92 262.08 L 468.28 302.47 Z" fill="#cf5551" fill-rule="evenodd" group-id="1,4,67" id="Fill-1082" node-id="113" stroke="none" target-height="44.39807" target-width="76.05682" target-x="398.85867" target-y="258.071"></path></g><g clip-path="url(#mask-12_34)" group-id="1,4,68" node-id="450"><path d="M 469.52 302.47 L 400.10 302.47 L 406.70 262.34 L 407.31 260.62 L 408.43 259.28 L 409.94 258.40 L 411.74 258.07 L 472.74 258.07 L 474.24 258.41 L 475.38 259.29 L 476.07 260.55 L 476.16 262.08 L 469.52 302.47 Z" fill="#e85f5b" fill-rule="evenodd" group-id="1,4,68" id="Fill-1083" node-id="114" stroke="none" target-height="44.39807" target-width="76.05682" target-x="400.10086" target-y="258.071"></path></g><g clip-path="url(#mask-12_35)" group-id="1,4,69" node-id="454"><path d="M 381.98 307.67 L 469.52 307.67 L 469.52 302.47 L 386.97 302.47 L 385.61 302.66 L 384.45 303.14 L 383.44 303.93 L 382.66 304.93 L 382.17 306.09 L 381.98 307.44 L 381.98 307.67 Z" fill="#698792" fill-rule="evenodd" group-id="1,4,69" id="Fill-1084" node-id="115" stroke="none" target-height="5.1994324" target-width="87.541046" target-x="381.97916" target-y="302.46912"></path></g><g clip-path="url(#mask-12_36)" group-id="1,4,70" node-id="458"><path d="M 446.94 280.98 L 446.70 282.62 L 446.11 284.03 L 445.16 285.25 L 443.93 286.21 L 442.51 286.79 L 440.86 287.03 L 439.21 286.79 L 437.80 286.21 L 436.57 285.25 L 435.62 284.03 L 435.03 282.62 L 434.79 280.98 L 435.03 279.33 L 435.62 277.93 L 436.57 276.70 L 437.80 275.75 L 439.21 275.16 L 440.86 274.93 L 442.51 275.16 L 443.93 275.75 L 445.16 276.70 L 446.11 277.93 L 446.70 279.33 L 446.94 280.98" fill="#f0836d" fill-rule="evenodd" group-id="1,4,70" id="Fill-1085" node-id="116" stroke="none" target-height="12.100555" target-width="12.1441345" target-x="434.79202" target-y="274.92557"></path></g><path d="M 220.63 127.32 L 219.44 127.15 L 218.43 126.73 L 217.55 126.04 L 216.86 125.16 L 216.44 124.15 L 216.27 122.97 L 216.44 121.79 L 216.86 120.78 L 217.55 119.90 L 218.43 119.21 L 219.44 118.79 L 220.63 118.63 L 220.99 118.64 L 221.93 116.88 L 223.34 115.50 L 225.10 114.60 L 227.16 114.27 L 229.23 114.60 L 230.99 115.51 L 232.40 116.90 L 233.34 118.66 L 233.88 118.63 L 234.89 118.74 L 235.80 119.07 L 236.67 117.87 L 237.82 116.94 L 239.19 116.34 L 240.74 116.12 L 242.27 116.34 L 243.57 116.88 L 244.71 117.76 L 245.59 118.90 L 246.14 120.20 L 246.35 121.72 L 246.14 123.24 L 245.59 124.54 L 244.71 125.68 L 243.57 126.56 L 242.27 127.10 L 240.74 127.32 L 220.63 127.32 Z" fill="#ffffff" fill-rule="evenodd" group-id="1,5" id="Fill-1098" node-id="118" stroke="none" target-height="13.04451" target-width="30.081741" target-x="216.27255" target-y="114.27203"></path><path d="M 136.85 134.89 L 138.32 134.68 L 139.58 134.16 L 140.68 133.31 L 141.53 132.22 L 142.05 130.96 L 142.26 129.50 L 142.05 128.03 L 141.53 126.78 L 140.68 125.68 L 139.58 124.83 L 138.32 124.31 L 136.85 124.10 L 135.90 124.19 L 135.01 124.43 L 134.34 122.71 L 133.36 121.24 L 132.07 119.98 L 130.54 119.03 L 128.84 118.44 L 126.92 118.21 L 125.07 118.42 L 123.41 118.98 L 121.92 119.87 L 120.63 121.06 L 119.65 122.45 L 118.94 124.08 L 117.54 123.48 L 115.96 123.26 L 114.38 123.48 L 113.02 124.05 L 111.84 124.96 L 110.92 126.14 L 110.36 127.50 L 110.13 129.08 L 110.36 130.65 L 110.92 132.01 L 111.84 133.19 L 113.02 134.10 L 114.38 134.67 L 115.96 134.89 L 136.85 134.89 Z" fill="#ffffff" fill-rule="evenodd" group-id="1,5" id="Fill-1100" node-id="119" stroke="none" target-height="16.678192" target-width="32.127296" target-x="110.131615" target-y="118.21083"></path><path d="M 452.68 134.00 L 455.00 133.69 L 457.05 132.82 L 458.80 131.47 L 460.15 129.72 L 461.02 127.67 L 461.33 125.36 L 461.02 123.05 L 460.15 121.00 L 458.80 119.25 L 457.05 117.90 L 455.00 117.03 L 452.68 116.72 L 451.15 116.86 L 449.72 117.25 L 448.67 114.51 L 447.08 112.12 L 445.02 110.12 L 442.56 108.60 L 440.75 107.88 L 438.83 107.45 L 436.77 107.29 L 433.83 107.61 L 431.16 108.51 L 428.75 109.95 L 426.71 111.83 L 425.10 114.10 L 423.98 116.69 L 422.52 115.98 L 420.94 115.54 L 419.21 115.37 L 417.51 115.53 L 415.95 115.96 L 414.50 116.65 L 412.61 118.10 L 411.15 119.99 L 410.46 121.43 L 410.04 122.99 L 409.88 124.69 L 410.04 126.39 L 410.46 127.94 L 411.15 129.39 L 412.61 131.27 L 414.50 132.73 L 415.95 133.42 L 417.51 133.84 L 419.21 134.00 L 452.68 134.00 Z" fill="#ffffff" fill-rule="evenodd" group-id="1,5" id="Fill-1102" node-id="120" stroke="none" target-height="26.712616" target-width="51.45639" target-x="409.87808" target-y="107.28667"></path></g></svg>