<?xml version="1.0" standalone="no"?><!DOCTYPE svg PUBLIC "-//W3C//DTD SVG 1.1//EN" "http://www.w3.org/Graphics/SVG/1.1/DTD/svg11.dtd"><svg t="1705503916098" class="icon" viewBox="0 0 1024 1024" version="1.1" xmlns="http://www.w3.org/2000/svg" p-id="12688" xmlns:xlink="http://www.w3.org/1999/xlink" width="200" height="200"><path d="M413.123 165.93a49.438 49.438 0 0 1 49.439-49.438h98.876a49.438 49.438 0 0 1 49.439 49.439v692.138a49.438 49.438 0 0 1-49.439 49.439h-98.876a49.438 49.438 0 0 1-49.439-49.439z m296.63 395.508A49.438 49.438 0 0 1 759.194 512h98.876a49.438 49.438 0 0 1 49.439 49.438V858.07a49.438 49.438 0 0 1-49.439 49.439h-98.877a49.438 49.438 0 0 1-49.438-49.439z m-593.26-197.753a49.438 49.438 0 0 1 49.438-49.439h98.877a49.438 49.438 0 0 1 49.438 49.439v494.384a49.438 49.438 0 0 1-49.438 49.439H165.93a49.438 49.438 0 0 1-49.439-49.439z m0 0" fill="#1471FF" p-id="12689"></path></svg>