<?xml version="1.0" standalone="no"?><!DOCTYPE svg PUBLIC "-//W3C//DTD SVG 1.1//EN" "http://www.w3.org/Graphics/SVG/1.1/DTD/svg11.dtd"><svg t="1705486105349" class="icon" viewBox="0 0 1024 1024" version="1.1" xmlns="http://www.w3.org/2000/svg" p-id="6573" xmlns:xlink="http://www.w3.org/1999/xlink" width="200" height="200"><path d="M248.729424 905.077731c2.485606 29.80271 27.398969 52.751329 57.329592 52.751329h411.868665c29.913227 0 54.858312-22.948619 57.330615-52.751329l53.142232-637.564536H195.598449l53.130975 637.564536z m517.146197-580.037446L717.928704 900.302994H306.060039l-47.93566-575.263733h507.751242z" fill="#e6e6e6" p-id="6574"></path><path d="M396.844514 440.054555l28.747683 345.142071-57.298892 4.772691-28.746661-345.143095zM627.12888 440.09958l57.29787 4.777807-28.782476 345.142072-57.29787-4.778831zM684.587409 181.224096v-28.763034c0-47.583643-38.707503-86.290123-86.291146-86.290122h-172.590479c-47.583643 0-86.291146 38.70648-86.291146 86.290122v28.763034H195.598449v57.527089h632.803102v-57.527089H684.587409z m-57.52709 0H396.940704v-28.763034c0-15.870424 12.893632-28.763033 28.764057-28.763033h172.590478c15.842795 0 28.764056 12.892609 28.764057 28.763033v28.763034zM483.229804 440.092417h57.541416v345.158444h-57.541416z" fill="#e6e6e6" p-id="6575"></path></svg>