<?xml version="1.0" standalone="no"?><!DOCTYPE svg PUBLIC "-//W3C//DTD SVG 1.1//EN" "http://www.w3.org/Graphics/SVG/1.1/DTD/svg11.dtd"><svg t="1705677770670" class="icon" viewBox="0 0 1024 1024" version="1.1" xmlns="http://www.w3.org/2000/svg" p-id="5334" xmlns:xlink="http://www.w3.org/1999/xlink" width="200" height="200"><path d="M0.933123 0h62.753757v961.954817H0.933123z" fill="#707070" p-id="5335"></path><path d="M0.853283 958.861041h1022.293434v65.138959H0.853283z" fill="#707070" p-id="5336"></path><path d="M386.697074 800.609399h124.399743v158.51112H386.697074z" fill="#0e88eb" p-id="5337"></path><path d="M510.488042 800.329961h124.399742v158.51112H510.488042z" fill="#CCD9ED" p-id="5338"></path><path d="M263.953999 642.736994h124.399742v158.51112H263.953999z" fill="#0e88eb" p-id="5339"></path><path d="M387.744966 642.457556h124.399743v158.51112H387.744966z" fill="#CCD9ED" p-id="5340"></path><path d="M634.19917 800.878857h124.399742v158.51112H634.19917zM511.456094 642.00846h124.399743v158.51112H511.456094z" fill="#0e88eb" p-id="5341"></path><path d="M635.247062 642.727014h124.399742v158.51112H635.247062zM63.65694 324.946299h124.399743v158.511121H63.65694z" fill="#CCD9ED" p-id="5342"></path><path d="M386.148178 483.4674h124.399743v158.51112H386.148178zM757.401322 485.273766h124.399742v158.51112H757.401322z" fill="#0e88eb" p-id="5343"></path><path d="M386.188098 325.305577h124.399743v158.51112H386.188098zM629.698224 163.80048h124.399743v158.51112H629.698224z" fill="#CCD9ED" p-id="5344"></path></svg>