<?xml version="1.0" standalone="no"?><!DOCTYPE svg PUBLIC "-//W3C//DTD SVG 1.1//EN" "http://www.w3.org/Graphics/SVG/1.1/DTD/svg11.dtd"><svg t="1705652129157" class="icon" viewBox="0 0 1404 1024" version="1.1" xmlns="http://www.w3.org/2000/svg" p-id="6428" xmlns:xlink="http://www.w3.org/1999/xlink" width="274.21875" height="200"><path d="M1378.132479 121.647739H53.789961c-2.81853 0-2.81853-1.127412-2.818529-1.127412-2.81853-1.127412 0-2.283009 2.818529-2.283009h1324.342518a17.362143 17.362143 0 0 1 5.637059 1.127412c0 1.127412-2.81853 2.283009-5.637059 2.283009z m0 92.475957H53.789961c-2.81853 0-2.81853-1.155597-2.818529-1.155597s0-2.283009 2.818529-2.283009h1324.342518a17.333957 17.333957 0 0 1 5.637059 1.155597 10.710413 10.710413 0 0 1-5.637059 2.283009z m0 92.475957H53.789961c-2.81853 0-2.81853-1.127412-2.818529-2.283009s2.81853-2.283009 2.818529-2.283009h1324.342518c2.81853 0 5.637059 1.127412 5.637059 2.283009s-2.81853 2.283009-5.637059 2.283009z m0-231.739506H53.789961c-2.81853 0-2.81853-1.127412-2.818529-1.127412s0-1.127412 2.818529-1.127412h1324.342518a2.81853 2.81853 0 1 1 0 2.283009z m0 93.603369H53.789961c-2.81853 0-2.81853-1.127412-2.818529-1.127412s0-2.283009 2.818529-2.283009h1324.342518c2.81853 0 5.637059 0 5.637059 1.127412s-2.81853 2.283009-5.637059 2.283009z m0 92.475957H53.789961c-2.81853 0-2.81853-1.127412-2.818529-2.283009s2.81853-2.283009 2.818529-2.283009h1324.342518c2.81853 0 5.637059 1.155597 5.637059 2.283009s-2.81853 2.283009-5.637059 2.283009z m0 92.475957H53.789961c-2.81853 0-2.81853-1.127412-2.818529-2.283009s2.81853-2.283009 2.818529-2.283009h1324.342518c2.81853 0 5.637059 1.127412 5.637059 2.283009s-2.81853 2.283009-5.637059 2.283009z" fill="#999999" p-id="6429"></path><path d="M104.326198 258.430982h56.370592v123.226115h-56.370592z" fill="#DD6542" p-id="6430"></path><path d="M245.252679 187.629517h56.370593v194.02758h-56.370593z" fill="#3AB481" p-id="6431"></path><path d="M174.789438 117.222647h56.370593v264.43445h-56.370593z" fill="#F5BB1C" p-id="6432"></path><path d="M611.661531 195.746883h56.370593v185.910214h-56.370593z" fill="#DD6542" p-id="6433"></path><path d="M752.588013 187.629517h56.370592v194.02758h-56.370592z" fill="#3AB481" p-id="6434"></path><path d="M682.124772 135.204866h56.370593v246.452231h-56.370593z" fill="#F5BB1C" p-id="6435"></path><path d="M1118.996865 249.439872h56.370592v132.217225h-56.370592z" fill="#DD6542" p-id="6436"></path><path d="M1259.923346 187.629517h56.370593v194.02758h-56.370593z" fill="#3AB481" p-id="6437"></path><path d="M1189.460105 135.204866h56.370593v246.452231h-56.370593z" fill="#F5BB1C" p-id="6438"></path><path d="M357.993864 249.439872h56.370593v132.217225h-56.370593z" fill="#DD6542" p-id="6439"></path><path d="M498.920346 42.78528h56.370593v338.900003h-56.370593z" fill="#3AB481" p-id="6440"></path><path d="M428.457105 9.836668h56.370593v371.820429h-56.370593z" fill="#F5BB1C" p-id="6441"></path><path d="M865.329198 56.962484h56.370592v324.722799h-56.370592z" fill="#DD6542" p-id="6442"></path><path d="M1006.255679 18.066775h56.370593v363.590322h-56.370593z" fill="#3AB481" p-id="6443"></path><path d="M935.792439 240.561504h56.370592v141.123779h-56.370592z" fill="#F5BB1C" p-id="6444"></path><path d="M46.320858 455.756241v-67.334673H4.240211A4.481462 4.481462 0 0 1 0.040601 384.221959a3.720459 3.720459 0 0 1 4.19961-4.199609h42.080647V28.326223l-11.725083 5.327021L50.013132 0l15.417357 33.681429-10.710413-4.876056v351.188792H1375.483061l-5.637059-12.34516 33.653243 15.417357-33.653243 15.417357 4.594203-10.062151H54.720076v67.334673c-1.38108 1.38108-2.81853 4.199609-4.199609 4.199609a4.481462 4.481462 0 0 1-4.199609-4.199609z" fill="#2DABE6" p-id="6445"></path><path d="M1378.132479 685.353665H53.789961c-2.81853 0-2.81853-1.127412-2.818529-1.127412-2.81853-1.127412 0-2.283009 2.818529-2.283009h1324.342518a17.362143 17.362143 0 0 1 5.637059 1.127412c0 1.127412-2.81853 2.283009-5.637059 2.283009z m0 92.475957H53.789961c-2.81853 0-2.81853-1.155597-2.818529-1.155597s0-2.283009 2.818529-2.283009h1324.342518a17.333957 17.333957 0 0 1 5.637059 1.155597 10.710413 10.710413 0 0 1-5.637059 2.283009z m0 92.475957H53.789961c-2.81853 0-2.81853-1.127412-2.818529-2.283009s2.81853-2.283009 2.818529-2.283009h1324.342518c2.81853 0 5.637059 1.127412 5.637059 2.283009s-2.81853 2.283009-5.637059 2.283009z m0-231.739506H53.789961c-2.81853 0-2.81853-1.127412-2.818529-1.127412s0-1.127412 2.818529-1.127412h1324.342518a2.81853 2.81853 0 1 1 0 2.283009z m0 93.603369H53.789961c-2.81853 0-2.81853-1.127412-2.818529-1.127412s0-2.283009 2.818529-2.283009h1324.342518c2.81853 0 5.637059 0 5.637059 1.127412s-2.81853 2.283009-5.637059 2.283009z m0 92.475957H53.789961c-2.81853 0-2.81853-1.127412-2.818529-2.283009s2.81853-2.283009 2.818529-2.283009h1324.342518c2.81853 0 5.637059 1.155597 5.637059 2.283009s-2.81853 2.283009-5.637059 2.283009z m0 92.475957H53.789961c-2.81853 0-2.81853-1.127412-2.818529-2.283009s2.81853-2.283009 2.818529-2.283009h1324.342518c2.81853 0 5.637059 1.127412 5.637059 2.283009s-2.81853 2.283009-5.637059 2.283009z" fill="#999999" p-id="6446"></path><path d="M104.326198 822.136908h56.370592v123.226115h-56.370592z" fill="#DD6542" p-id="6447"></path><path d="M245.252679 751.335444h56.370593v194.027579h-56.370593z" fill="#3AB481" p-id="6448"></path><path d="M174.789438 680.928573h56.370593v264.43445h-56.370593z" fill="#F5BB1C" p-id="6449"></path><path d="M611.661531 759.452809h56.370593v185.910214h-56.370593z" fill="#DD6542" p-id="6450"></path><path d="M752.588013 751.335444h56.370592v194.027579h-56.370592z" fill="#3AB481" p-id="6451"></path><path d="M682.124772 698.910792h56.370593v246.452231h-56.370593z" fill="#F5BB1C" p-id="6452"></path><path d="M1118.996865 813.145798h56.370592v132.217225h-56.370592z" fill="#DD6542" p-id="6453"></path><path d="M1259.923346 751.335444h56.370593v194.027579h-56.370593z" fill="#3AB481" p-id="6454"></path><path d="M1189.460105 698.910792h56.370593v246.452231h-56.370593z" fill="#F5BB1C" p-id="6455"></path><path d="M357.993864 813.145798h56.370593v132.217225h-56.370593z" fill="#DD6542" p-id="6456"></path><path d="M498.920346 606.491206h56.370593v338.900003h-56.370593z" fill="#3AB481" p-id="6457"></path><path d="M428.457105 573.542594h56.370593v371.820429h-56.370593z" fill="#F5BB1C" p-id="6458"></path><path d="M865.329198 620.66841h56.370592v324.722799h-56.370592z" fill="#DD6542" p-id="6459"></path><path d="M1006.255679 581.772701h56.370593v363.590322h-56.370593z" fill="#3AB481" p-id="6460"></path><path d="M935.792439 804.26743h56.370592v141.123779h-56.370592z" fill="#F5BB1C" p-id="6461"></path><path d="M46.320858 1019.462167v-67.334673H4.240211A4.481462 4.481462 0 0 1 0.040601 947.927885a3.720459 3.720459 0 0 1 4.19961-4.199609h42.080647V592.032149l-11.725083 5.327021L50.013132 563.705926l15.417357 33.681429-10.710413-4.876056v351.188792H1375.483061l-5.637059-12.34516 33.653243 15.417357-33.653243 15.417357 4.594203-10.062151H54.720076v67.334673c-1.38108 1.38108-2.81853 4.199609-4.199609 4.199609a4.481462 4.481462 0 0 1-4.199609-4.199609z" fill="#2DABE6" p-id="6462"></path></svg>