<?xml version="1.0" standalone="no"?><!DOCTYPE svg PUBLIC "-//W3C//DTD SVG 1.1//EN" "http://www.w3.org/Graphics/SVG/1.1/DTD/svg11.dtd"><svg t="1705653089509" class="icon" viewBox="0 0 1024 1024" version="1.1" xmlns="http://www.w3.org/2000/svg" p-id="7501" xmlns:xlink="http://www.w3.org/1999/xlink" width="200" height="200"><path d="M157.9 387.3L512 512 224.3 270.9c-28.6 34.1-51.3 73.4-66.4 116.4zM267.8 227L512 512 383.4 159.3c-42.6 15.6-81.7 38.7-115.6 67.7zM136.9 498.3c-1 28.3 1.1 56 6.1 82.7l369-69-369.7-64.9c-2.9 16.7-4.7 33.8-5.4 51.2zM512 512l-18.4 52.2-13.3 37.7c-10.7-3.8-20.7-9.4-29.5-16.9l25.7-30.7L512 512zM525.7 136.9c-28.3-1-56 1.1-82.7 6.1l69 369 64.9-369.7c-16.7-2.9-33.8-4.7-51.2-5.4zM512 512l-42 36c-4.4-5.1-7.7-10.8-10-17l52-19zM789.6 410.8L752 424.5l-37.6 13.7-37.6 13.7-37.6 13.7-37.6 13.7L564 493l-52 19 42-36 30.4-26 30.4-26 30.4-26 30.4-26 30.4-26 30.4-26c23.2 27 41.2 57.8 53.2 90.8zM536.9 645c-8.1 1.5-16.5 2.3-24.9 2.3-7.9 0-15.8-0.7-23.4-2l6.9-39.4 6.9-39.4L512 512l10.2 54.4 7.4 39.3 7.3 39.3zM626.1 645.1c-16.1 13.9-34.4 24.5-54 31.7l-13.7-37.6-13.7-37.6L531 564l-19-52 36 42 26 30.4 26 30.4 26.1 30.3zM715.2 583.5c-8.5 24.2-21.3 46.8-38.1 66.8l-30.7-25.7-30.7-25.7-30.7-25.7-30.7-25.7L512 512l52.2 18.4 37.7 13.3 37.8 13.3 37.7 13.3 37.8 13.2zM727.4 255l-25.7 30.7-25.7 30.6-25.7 30.7-25.7 30.7-25.7 30.7-25.7 30.6-25.7 30.7L512 512l18.4-52.2 13.3-37.7 13.3-37.8 13.3-37.7 13.3-37.8 13.3-37.8 13.3-37.7 13.3-37.8c37.6 13.3 72.8 33.3 103.9 59.5zM763 465.1c2.8 15.3 4.3 31 4.3 46.9 0 15-1.3 29.7-3.8 44.2l-39.4-6.9-39.4-6.9-39.4-6.9-39.4-6.9-39.4-6.9L512 512l54.4-10.2 39.3-7.4L645 487l39.3-7.3 39.3-7.4 39.4-7.2z" fill="#A6DB20" p-id="7502"></path><path d="M932 492h-25.2c-2.3-46.3-12.5-91.2-30.6-133.9-3.8-8.9-7.9-17.7-12.3-26.3l21.7-12.5c9.6-5.5 12.9-17.7 7.3-27.3s-17.7-12.9-27.3-7.3l-21.8 12.6c-15.1-23.2-32.6-44.9-52.4-64.7-19.9-19.9-41.5-37.4-64.7-52.4l12.6-21.8c5.5-9.6 2.2-21.8-7.3-27.3-9.6-5.5-21.8-2.2-27.3 7.3L692.2 160c-8.6-4.4-17.3-8.5-26.3-12.3-42.6-18-87.6-28.3-133.9-30.6V92c0-11-9-20-20-20s-20 9-20 20v25.2c-46.3 2.3-91.2 12.5-133.9 30.6-8.9 3.8-17.7 7.9-26.3 12.3l-12.5-21.7c-5.5-9.6-17.7-12.9-27.3-7.3-9.6 5.5-12.9 17.7-7.3 27.3l12.6 21.8c-23.2 15.1-44.9 32.6-64.7 52.4-19.9 19.9-37.4 41.5-52.4 64.7l-21.8-12.6c-9.6-5.5-21.8-2.2-27.3 7.3-5.5 9.6-2.2 21.8 7.3 27.3l21.7 12.5c-4.4 8.6-8.5 17.3-12.3 26.3-18 42.6-28.3 87.6-30.6 133.9H92c-11 0-20 9-20 20s9 20 20 20h25.2c2.3 46.3 12.5 91.2 30.6 133.9 3.8 8.9 7.9 17.7 12.3 26.3l-21.7 12.5c-9.6 5.5-12.9 17.7-7.3 27.3 3.7 6.4 10.4 10 17.3 10 3.4 0 6.8-0.9 10-2.7l21.8-12.6c15.1 23.2 32.6 44.9 52.4 64.7 19.9 19.9 41.5 37.4 64.7 52.4l-12.6 21.8c-5.5 9.6-2.2 21.8 7.3 27.3 3.1 1.8 6.6 2.7 10 2.7 6.9 0 13.6-3.6 17.3-10l12.5-21.7c8.6 4.4 17.3 8.5 26.3 12.3 42.6 18 87.6 28.3 133.9 30.6V932c0 11 9 20 20 20s20-9 20-20v-25.2c46.3-2.3 91.2-12.5 133.9-30.6 8.9-3.8 17.7-7.9 26.3-12.3l12.5 21.7c3.7 6.4 10.4 10 17.3 10 3.4 0 6.8-0.9 10-2.7 9.6-5.5 12.9-17.7 7.3-27.3l-12.6-21.8c23.2-15.1 44.9-32.6 64.7-52.4 19.9-19.9 37.4-41.5 52.4-64.7l21.8 12.6c3.1 1.8 6.6 2.7 10 2.7 6.9 0 13.6-3.6 17.3-10 5.5-9.6 2.2-21.8-7.3-27.3L864 692.2c4.4-8.6 8.5-17.3 12.3-26.3 18-42.6 28.3-87.6 30.6-133.9H932c11 0 20-9 20-20s-9-20-20-20zM820.9 687.9c-0.4 0.6-0.8 1.2-1.2 1.9-0.3 0.6-0.7 1.2-0.9 1.8-15.2 25.8-33.7 49.9-55.5 71.7-21.8 21.7-45.8 40.3-71.7 55.5l-1.8 0.9c-0.7 0.4-1.3 0.8-1.9 1.2-53 30.3-113.2 46.4-175.9 46.4s-122.9-16.1-175.9-46.4c-0.6-0.4-1.2-0.8-1.9-1.2-0.6-0.3-1.2-0.7-1.8-0.9-25.8-15.2-49.9-33.7-71.7-55.5-21.7-21.7-40.3-45.8-55.5-71.7l-0.9-1.8c-0.4-0.7-0.8-1.3-1.2-1.9-30.3-53-46.4-113.2-46.4-175.9s16.1-122.9 46.4-175.9l1.2-1.8c0.3-0.6 0.7-1.2 0.9-1.8 15.2-25.8 33.7-49.9 55.5-71.7 21.8-21.8 45.9-40.3 71.8-55.5l1.8-0.9c0.7-0.4 1.3-0.8 1.9-1.2 53-30.3 113.2-46.4 175.9-46.4S635 172.9 688 203.2c0.6 0.4 1.2 0.8 1.9 1.2l1.8 0.9c25.9 15.2 50 33.8 71.7 55.5 21.7 21.7 40.3 45.8 55.5 71.7l0.9 1.8c0.4 0.6 0.8 1.3 1.2 1.8 30.3 53 46.4 113.2 46.4 175.9-0.1 62.7-16.2 122.9-46.5 175.9z" fill="#FAD60E" p-id="7503"></path></svg>