<?xml version="1.0" standalone="no"?><!DOCTYPE svg PUBLIC "-//W3C//DTD SVG 1.1//EN" "http://www.w3.org/Graphics/SVG/1.1/DTD/svg11.dtd"><svg t="1705678340365" class="icon" viewBox="0 0 1024 1024" version="1.1" xmlns="http://www.w3.org/2000/svg" p-id="1540" xmlns:xlink="http://www.w3.org/1999/xlink" width="200" height="200"><path d="M0 0m0 0l1024 0q0 0 0 0l0 1024q0 0 0 0l-1024 0q0 0 0 0l0-1024q0 0 0 0Z" fill="#FFFFFF" fill-opacity="0" p-id="1541"></path><path d="M85.333333 405.546667c77.994667-24.277333 104.277333-128.128 159.616-134.656 71.893333-8.32 114.773333 69.12 162.56 55.466666C458.752 311.808 487.125333 170.666667 560.384 170.666667c55.338667 0 103.552 181.589333 153.301333 181.589333 49.834667 0 93.397333-140.373333 140.373334-142.805333 42.026667-2.176 60.842667 25.173333 84.650666 74.794666V533.333333H85.333333V405.546667z" fill="#2B56B0" p-id="1542"></path><path d="M257.792 386.389333c72.021333-9.472 114.816 118.613333 163.2 124.032 48.341333 5.504 114.389333-118.272 171.434667-121.301333 35.925333-1.92 75.52 72.746667 125.269333 72.746667 49.834667 0 58.112-92.074667 116.736-92.16 45.909333 0 84.864 69.632 104.234667 131.584v144.128c-33.28-34.688-72.874667-62.976-103.338667-42.88-38.613333 25.429333-58.922667 108.501333-108.714667 108.501333s-96.213333-119.210667-169.642666-125.866667c-53.888-4.821333-86.826667 63.146667-134.101334 83.882667-62.250667 27.392-87.04-118.101333-159.018666-127.616-55.296-7.338667-103.978667 31.018667-178.517334 29.994667v-97.493334c83.584 0.682667 117.248-80.213333 172.458667-87.552z" fill="#FFFFFF" p-id="1543"></path><path d="M938.666667 748.544c-39.509333 65.152-86.613333 140.458667-141.952 147.072-71.850667 8.533333-140.202667-130.56-202.837334-133.845333-48.512-2.56-98.986667 93.184-173.354666 80.810666-118.826667-19.797333-104.192-155.818667-208.768-174.805333-58.368-10.581333-82.474667-14.848-126.421334-13.269333V554.666667h853.333334v193.877333z" fill="#D98741" p-id="1544"></path><path d="M257.792 416.853333c72.021333-9.514667 114.816 118.613333 163.2 124.032 48.341333 5.461333 114.389333-118.272 171.434667-121.344 35.925333-1.92 75.52 72.789333 125.269333 72.789334 49.834667 0 58.112-92.117333 116.736-92.16 45.909333 0 84.864 69.546667 104.234667 131.541333v144.128c-33.28-34.645333-72.874667-62.933333-103.338667-42.88-38.613333 25.429333-58.922667 108.544-108.714667 108.544s-96.213333-119.210667-169.642666-125.866667c-53.888-4.864-86.826667 63.061333-134.101334 83.84-62.250667 27.434667-87.04-118.058667-159.018666-127.616-55.296-7.296-103.978667 31.061333-178.517334 29.994667v-97.493333c83.584 0.682667 117.248-80.213333 172.458667-87.552z" fill="#FFFFFF" p-id="1545"></path><path d="M257.792 400.64c72.021333-9.472 114.816 118.613333 163.2 124.074667 48.341333 5.504 114.389333-118.272 171.434667-121.301334 35.925333-1.92 75.52 72.746667 125.269333 72.746667 49.834667 0 58.112-92.074667 116.736-92.16 45.909333 0 84.864 69.589333 104.234667 131.584v144.128c-33.28-34.688-72.874667-62.976-103.338667-42.88-38.613333 25.429333-58.922667 108.501333-108.714667 108.501333s-96.213333-119.210667-169.642666-125.866666c-53.888-4.821333-86.826667 63.104-134.101334 83.882666-62.250667 27.392-87.04-118.101333-159.018666-127.658666-55.296-7.296-103.978667 31.061333-178.517334 29.994666v-97.450666c83.584 0.682667 117.248-80.213333 172.458667-87.552z" fill="#47A0B3" p-id="1546"></path></svg>